<svg width="850" height="694" viewBox="0 0 850 694" fill="none" xmlns="http://www.w3.org/2000/svg">
<path d="M578.013 159.407C606.295 137.611 620.418 111.316 623.944 100.893C440.656 261.374 338.008 298.356 303.387 319.481C268.765 340.606 293.539 344.63 263.042 363.464C232.546 382.299 218.075 363.666 209.332 388.519C200.59 413.372 179.291 417.894 146.187 413.732C113.083 409.57 101.775 446.958 88.3725 458.843C77.6507 468.35 68.5211 461.397 65.2965 456.732L54.105 468.025L243.861 658.873L258.802 639.467C235.625 614.873 243.464 635.284 258.247 606.442C273.029 577.601 315.352 585.217 311.798 571.952C308.243 558.688 286.151 516.032 313.786 508.627C341.421 501.222 341.559 492.892 324.935 461.803C308.311 430.714 341.553 426.546 370.59 419.951C399.626 413.355 383.891 385.582 378.264 364.58C372.636 343.577 403.312 351.944 423.585 352.436C443.858 352.928 464.601 315.381 474.724 273.571C484.847 231.761 542.661 186.651 578.013 159.407Z" fill="#100C1A"/>
<path d="M678.554 70.5632C661.804 87.3141 642.789 95.4583 636.085 88.7538C629.38 82.0494 637.524 63.0351 654.275 46.2842C674.178 26.3815 699.332 19.3326 702.419 22.4198C705.506 25.5069 698.38 50.7372 678.554 70.5632Z" fill="#100C1A"/>
<path d="M625.257 76.0702C616.859 74.6144 608.844 76.9586 604.732 78.8741C603.975 79.2267 602.924 79.2718 603.284 78.5182C604.415 76.1507 611.183 69.81 615.178 66.2922C620.82 60.8081 627.477 58.243 632.796 57.1989C636.316 56.5078 638.436 60.1627 636.735 63.3214L631.313 73.3914C630.163 75.5278 627.647 76.4847 625.257 76.0702Z" fill="#100C1A"/>
<path d="M648.771 99.5828C650.227 107.981 647.882 115.996 645.967 120.107C645.614 120.864 645.569 121.915 646.323 121.555C648.69 120.424 655.031 113.656 658.549 109.662C664.033 104.019 666.598 97.3625 667.642 92.0438C668.333 88.5235 664.678 86.4033 661.52 88.1041L651.45 93.5264C649.313 94.6767 648.356 97.192 648.771 99.5828Z" fill="#100C1A"/>
<circle cx="792.896" cy="214.992" r="41.7279" transform="rotate(-18.1074 792.896 214.992)" fill="#100C1A"/>
<path fill-rule="evenodd" clip-rule="evenodd" d="M788.409 227.751C822.995 216.441 850.159 204.603 849.082 201.309C848.005 198.015 819.095 204.513 784.509 215.823C749.923 227.132 722.759 238.97 723.836 242.264C724.913 245.558 753.823 239.06 788.409 227.751ZM787.592 223.819C814.411 215.049 835.645 206.389 835.019 204.474C834.393 202.56 812.145 208.118 785.326 216.888C758.507 225.657 737.273 234.318 737.899 236.232C738.524 238.146 760.773 232.589 787.592 223.819Z" fill="#100C1A"/>
</svg>
