<svg width="796" height="638" viewBox="0 0 796 638" fill="none" xmlns="http://www.w3.org/2000/svg">
<path d="M524.014 138.407C552.296 116.611 566.419 90.3164 569.945 79.8933C386.656 240.374 284.009 277.356 249.387 298.481C214.765 319.606 239.539 323.63 209.043 342.464C178.546 361.299 164.075 342.666 155.333 367.519C146.59 392.372 125.291 396.894 92.1871 392.732C59.083 388.57 47.7753 425.958 34.373 437.843C23.6512 447.35 14.5216 440.397 11.297 435.732L0.105469 447.025L189.861 637.873L204.803 618.467C181.626 593.873 189.464 614.284 204.247 585.442C219.03 556.601 261.352 564.217 257.798 550.952C254.244 537.688 232.151 495.032 259.786 487.627C287.422 480.222 287.559 471.892 270.935 440.803C254.312 409.714 287.553 405.546 316.59 398.951C345.627 392.355 329.892 364.582 324.264 343.58C318.637 322.577 349.313 330.944 369.586 331.436C389.859 331.928 410.602 294.381 420.725 252.571C430.848 210.761 488.662 165.651 524.014 138.407Z" fill="white"/>
<path d="M624.555 49.5632C607.804 66.3141 588.79 74.4583 582.086 67.7538C575.381 61.0494 583.525 42.0351 600.276 25.2842C620.179 5.3815 645.333 -1.66736 648.42 1.41979C651.507 4.50694 644.381 29.7372 624.555 49.5632Z" fill="white"/>
<path d="M571.257 55.0703C562.859 53.6144 554.844 55.9586 550.732 57.8741C549.975 58.2268 548.924 58.2718 549.284 57.5182C550.415 55.1508 557.183 48.81 561.178 45.2922C566.82 39.8081 573.477 37.243 578.796 36.1989C582.316 35.5078 584.436 39.1627 582.735 42.3214L577.313 52.3914C576.163 54.5278 573.647 55.4847 571.257 55.0703Z" fill="white"/>
<path d="M594.77 78.5828C596.226 86.9805 593.882 94.9958 591.967 99.1071C591.614 99.8641 591.569 100.915 592.322 100.555C594.69 99.424 601.031 92.6561 604.548 88.6617C610.033 83.0193 612.598 76.3625 613.642 71.0438C614.333 67.5235 610.678 65.4033 607.519 67.1041L597.449 72.5264C595.313 73.6767 594.356 76.192 594.77 78.5828Z" fill="white"/>
<path d="M778.558 181.023C785.72 202.928 773.77 226.491 751.866 233.654C729.961 240.816 706.398 228.866 699.235 206.961C692.073 185.057 704.023 161.494 725.927 154.331C747.832 147.168 771.395 159.119 778.558 181.023Z" fill="white"/>
<path fill-rule="evenodd" clip-rule="evenodd" d="M734.41 206.751C768.995 195.441 796.16 183.603 795.083 180.309C794.006 177.015 765.095 183.513 730.509 194.823C695.923 206.132 668.759 217.97 669.836 221.264C670.913 224.558 699.824 218.06 734.41 206.751ZM733.593 202.819C760.412 194.049 781.646 185.389 781.02 183.474C780.394 181.56 758.145 187.118 731.326 195.888C704.507 204.657 683.273 213.318 683.899 215.232C684.525 217.146 706.774 211.589 733.593 202.819Z" fill="white"/>
</svg>
