<svg width="408" height="198" viewBox="0 0 408 198" fill="none" xmlns="http://www.w3.org/2000/svg">
<g filter="url(#filter0_d_108_59)">
<rect x="24.1152" y="1.75757" width="359.196" height="148.273" rx="10" fill="#31303D"/>
</g>
<path opacity="0.5" d="M44.1988 21.7238C43.8954 21.8971 43.5704 22.0228 43.2238 22.1008C42.8858 22.1874 42.5218 22.2308 42.1318 22.2308C41.6551 22.2308 41.2131 22.1484 40.8058 21.9838C40.4071 21.8104 40.0604 21.5548 39.7658 21.2168C39.4711 20.8701 39.2371 20.4324 39.0638 19.9038C38.8991 19.3751 38.8168 18.7511 38.8168 18.0318C38.8168 17.3471 38.9034 16.7448 39.0767 16.2248C39.2588 15.7048 39.5014 15.2671 39.8048 14.9118C40.1081 14.5564 40.4634 14.2878 40.8708 14.1058C41.2781 13.9238 41.7114 13.8328 42.1708 13.8328C42.4914 13.8328 42.8164 13.8761 43.1458 13.9628C43.4838 14.0494 43.8131 14.1924 44.1338 14.3918L43.8218 15.2758C43.2498 14.9464 42.7124 14.7818 42.2098 14.7818C41.8544 14.7818 41.5338 14.8598 41.2478 15.0158C40.9704 15.1631 40.7321 15.3798 40.5328 15.6658C40.3334 15.9518 40.1774 16.2941 40.0648 16.6928C39.9608 17.0914 39.9088 17.5378 39.9088 18.0318C39.9088 18.5864 39.9651 19.0674 40.0778 19.4748C40.1991 19.8821 40.3638 20.2201 40.5718 20.4888C40.7798 20.7574 41.0268 20.9568 41.3128 21.0868C41.6074 21.2168 41.9238 21.2818 42.2618 21.2818C42.5131 21.2818 42.7774 21.2514 43.0548 21.1908C43.3321 21.1214 43.6181 21.0044 43.9128 20.8398L44.1988 21.7238ZM50.6988 19.0458C50.6988 19.5224 50.6294 19.9558 50.4908 20.3458C50.3608 20.7271 50.1744 21.0564 49.9318 21.3338C49.6891 21.6111 49.3988 21.8278 49.0608 21.9838C48.7228 22.1311 48.3544 22.2048 47.9558 22.2048C47.5658 22.2048 47.2018 22.1311 46.8638 21.9838C46.5344 21.8278 46.2484 21.6111 46.0058 21.3338C45.7631 21.0564 45.5724 20.7271 45.4338 20.3458C45.3038 19.9558 45.2388 19.5224 45.2388 19.0458C45.2388 18.5691 45.3038 18.1358 45.4338 17.7458C45.5724 17.3558 45.7631 17.0264 46.0058 16.7578C46.2484 16.4804 46.5344 16.2681 46.8638 16.1208C47.2018 15.9648 47.5658 15.8868 47.9558 15.8868C48.3544 15.8868 48.7228 15.9648 49.0608 16.1208C49.3988 16.2681 49.6891 16.4804 49.9318 16.7578C50.1744 17.0264 50.3608 17.3558 50.4908 17.7458C50.6294 18.1358 50.6988 18.5691 50.6988 19.0458ZM49.5938 19.0458C49.5938 18.3611 49.4464 17.8238 49.1518 17.4338C48.8571 17.0351 48.4584 16.8358 47.9558 16.8358C47.4618 16.8358 47.0674 17.0351 46.7728 17.4338C46.4868 17.8238 46.3438 18.3611 46.3438 19.0458C46.3438 19.7218 46.4868 20.2591 46.7728 20.6578C47.0674 21.0478 47.4618 21.2428 47.9558 21.2428C48.4584 21.2428 48.8571 21.0478 49.1518 20.6578C49.4464 20.2591 49.5938 19.7218 49.5938 19.0458ZM51.7518 16.1988C52.2718 15.9994 52.7614 15.8998 53.2208 15.8998C53.4721 15.8998 53.7061 15.9388 53.9228 16.0168C54.1481 16.0861 54.3388 16.1988 54.4948 16.3548C54.8674 16.0514 55.2661 15.8998 55.6908 15.8998C55.8988 15.8998 56.0938 15.9388 56.2758 16.0168C56.4664 16.0948 56.6311 16.2118 56.7698 16.3678C56.9171 16.5238 57.0341 16.7188 57.1208 16.9528C57.2074 17.1868 57.2508 17.4598 57.2508 17.7718V22.0618H56.2758V17.7458C56.2758 17.4338 56.2064 17.1954 56.0678 17.0308C55.9291 16.8661 55.7558 16.7838 55.5478 16.7838C55.4438 16.7838 55.3354 16.8098 55.2228 16.8618C55.1101 16.9138 55.0061 16.9961 54.9108 17.1088C54.9628 17.3081 54.9888 17.5291 54.9888 17.7718V19.7348H54.0138V17.7588C54.0138 17.4554 53.9661 17.2171 53.8708 17.0438C53.7754 16.8704 53.5891 16.7838 53.3118 16.7838C53.1384 16.7838 52.9434 16.8228 52.7268 16.9008V22.0618H51.7518V16.1988ZM58.2518 16.1988C58.7718 15.9994 59.2614 15.8998 59.7208 15.8998C59.9721 15.8998 60.2061 15.9388 60.4228 16.0168C60.6481 16.0861 60.8388 16.1988 60.9948 16.3548C61.3674 16.0514 61.7661 15.8998 62.1908 15.8998C62.3988 15.8998 62.5938 15.9388 62.7758 16.0168C62.9664 16.0948 63.1311 16.2118 63.2698 16.3678C63.4171 16.5238 63.5341 16.7188 63.6208 16.9528C63.7074 17.1868 63.7508 17.4598 63.7508 17.7718V22.0618H62.7758V17.7458C62.7758 17.4338 62.7064 17.1954 62.5678 17.0308C62.4291 16.8661 62.2558 16.7838 62.0478 16.7838C61.9438 16.7838 61.8354 16.8098 61.7228 16.8618C61.6101 16.9138 61.5061 16.9961 61.4108 17.1088C61.4628 17.3081 61.4888 17.5291 61.4888 17.7718V19.7348H60.5138V17.7588C60.5138 17.4554 60.4661 17.2171 60.3708 17.0438C60.2754 16.8704 60.0891 16.7838 59.8118 16.7838C59.6384 16.7838 59.4434 16.8228 59.2268 16.9008V22.0618H58.2518V16.1988ZM66.9358 15.0938C66.7104 15.0938 66.5154 15.0158 66.3508 14.8598C66.1861 14.7038 66.1038 14.4914 66.1038 14.2228C66.1038 13.9541 66.1861 13.7418 66.3508 13.5858C66.5154 13.4298 66.7104 13.3518 66.9358 13.3518C67.1698 13.3518 67.3648 13.4298 67.5208 13.5858C67.6854 13.7418 67.7678 13.9541 67.7678 14.2228C67.7678 14.4914 67.6854 14.7038 67.5208 14.8598C67.3648 15.0158 67.1698 15.0938 66.9358 15.0938ZM66.6628 16.9268H64.9208V16.0298H67.7288V19.7348C67.7288 20.3328 67.8111 20.7358 67.9758 20.9438C68.1404 21.1431 68.3874 21.2428 68.7168 21.2428C68.9681 21.2428 69.1978 21.2124 69.4058 21.1518C69.6224 21.0911 69.7914 21.0261 69.9128 20.9568L70.0688 21.8668C70.0168 21.8928 69.9431 21.9274 69.8478 21.9708C69.7524 22.0054 69.6398 22.0401 69.5098 22.0748C69.3884 22.1094 69.2498 22.1398 69.0938 22.1658C68.9464 22.1918 68.7904 22.2048 68.6258 22.2048C68.2444 22.2048 67.9281 22.1528 67.6768 22.0488C67.4254 21.9448 67.2218 21.7888 67.0658 21.5808C66.9184 21.3728 66.8144 21.1171 66.7538 20.8138C66.6931 20.5018 66.6628 20.1421 66.6628 19.7348V16.9268ZM73.8778 16.0298H76.4258V16.9268H73.8778V19.7348C73.8778 20.0381 73.8994 20.2851 73.9428 20.4758C73.9861 20.6664 74.0554 20.8224 74.1507 20.9438C74.2548 21.0564 74.3848 21.1344 74.5407 21.1778C74.6968 21.2211 74.8874 21.2428 75.1128 21.2428C75.4248 21.2428 75.6761 21.2168 75.8668 21.1648C76.0574 21.1128 76.2394 21.0434 76.4128 20.9568L76.5688 21.8668C76.4474 21.9188 76.2524 21.9881 75.9838 22.0748C75.7238 22.1614 75.3988 22.2048 75.0088 22.2048C74.5581 22.2048 74.1898 22.1528 73.9038 22.0488C73.6178 21.9448 73.3924 21.7888 73.2278 21.5808C73.0718 21.3728 72.9634 21.1171 72.9028 20.8138C72.8421 20.5018 72.8118 20.1421 72.8118 19.7348V16.9268H71.5378V16.0298H72.8118V14.3398L73.8778 14.1578V16.0298ZM80.5858 15.8868C81.4004 15.8868 82.0288 16.1424 82.4708 16.6538C82.9128 17.1564 83.1338 17.9234 83.1338 18.9548V19.3318H78.8178C78.8611 19.9558 79.0648 20.4324 79.4288 20.7618C79.8014 21.0824 80.3214 21.2428 80.9888 21.2428C81.3701 21.2428 81.6951 21.2124 81.9638 21.1518C82.2324 21.0911 82.4361 21.0261 82.5748 20.9568L82.7178 21.8668C82.5878 21.9361 82.3538 22.0098 82.0158 22.0878C81.6778 22.1658 81.2964 22.2048 80.8718 22.2048C80.3518 22.2048 79.8924 22.1268 79.4938 21.9708C79.1038 21.8061 78.7788 21.5851 78.5188 21.3078C78.2588 21.0304 78.0638 20.7011 77.9338 20.3198C77.8038 19.9298 77.7388 19.5094 77.7388 19.0588C77.7388 18.5214 77.8211 18.0534 77.9858 17.6548C78.1504 17.2561 78.3671 16.9268 78.6358 16.6668C78.9044 16.4068 79.2078 16.2118 79.5458 16.0818C79.8838 15.9518 80.2304 15.8868 80.5858 15.8868ZM82.0418 18.4608C82.0418 17.9494 81.9074 17.5464 81.6388 17.2518C81.3701 16.9484 81.0148 16.7968 80.5728 16.7968C80.3214 16.7968 80.0918 16.8444 79.8838 16.9398C79.6844 17.0351 79.5111 17.1608 79.3638 17.3168C79.2164 17.4728 79.0994 17.6504 79.0128 17.8498C78.9261 18.0491 78.8698 18.2528 78.8438 18.4608H82.0418ZM88.2168 17.3038C88.0954 17.1911 87.9178 17.0871 87.6838 16.9918C87.4498 16.8878 87.2071 16.8358 86.9558 16.8358C86.6698 16.8358 86.4228 16.8921 86.2148 17.0048C86.0154 17.1174 85.8508 17.2734 85.7208 17.4728C85.5908 17.6634 85.4954 17.8974 85.4347 18.1748C85.3741 18.4434 85.3438 18.7338 85.3438 19.0458C85.3438 19.7478 85.5084 20.2894 85.8378 20.6708C86.1671 21.0521 86.5961 21.2428 87.1248 21.2428C87.3934 21.2428 87.6188 21.2298 87.8008 21.2038C87.9914 21.1778 88.1301 21.1518 88.2168 21.1258V17.3038ZM88.2168 13.2348L89.2958 13.0528V21.8928C89.0618 21.9621 88.7628 22.0314 88.3988 22.1008C88.0348 22.1701 87.6101 22.2048 87.1248 22.2048C86.6914 22.2048 86.2971 22.1311 85.9418 21.9838C85.5864 21.8364 85.2831 21.6284 85.0318 21.3598C84.7804 21.0824 84.5854 20.7488 84.4468 20.3588C84.3081 19.9688 84.2388 19.5311 84.2388 19.0458C84.2388 18.5778 84.2951 18.1531 84.4078 17.7718C84.5291 17.3818 84.7024 17.0481 84.9278 16.7708C85.1531 16.4934 85.4218 16.2768 85.7338 16.1208C86.0544 15.9648 86.4184 15.8868 86.8258 15.8868C87.1464 15.8868 87.4281 15.9258 87.6708 16.0038C87.9134 16.0818 88.0954 16.1641 88.2168 16.2508V13.2348ZM102.179 16.0688C102.179 16.3461 102.122 16.6148 102.01 16.8748C101.906 17.1348 101.763 17.3904 101.581 17.6418C101.407 17.8931 101.208 18.1401 100.983 18.3828C100.757 18.6254 100.528 18.8638 100.294 19.0978C100.164 19.2278 100.012 19.3838 99.8388 19.5658C99.6654 19.7478 99.5008 19.9341 99.3448 20.1248C99.1888 20.3154 99.0588 20.5018 98.9548 20.6838C98.8508 20.8658 98.7988 21.0218 98.7988 21.1518H102.504V22.0618H97.6288C97.6201 22.0184 97.6158 21.9751 97.6158 21.9318C97.6158 21.8798 97.6158 21.8321 97.6158 21.7888C97.6158 21.4248 97.6764 21.0868 97.7978 20.7748C97.9191 20.4628 98.0751 20.1681 98.2658 19.8908C98.4564 19.6134 98.6688 19.3534 98.9028 19.1108C99.1454 18.8594 99.3838 18.6168 99.6178 18.3828C99.8084 18.1921 99.9904 18.0058 100.164 17.8238C100.346 17.6418 100.502 17.4598 100.632 17.2778C100.77 17.0958 100.879 16.9094 100.957 16.7188C101.043 16.5194 101.087 16.3158 101.087 16.1078C101.087 15.8738 101.048 15.6744 100.97 15.5098C100.9 15.3451 100.801 15.2108 100.671 15.1068C100.549 14.9941 100.406 14.9118 100.242 14.8598C100.077 14.8078 99.8994 14.7818 99.7088 14.7818C99.4834 14.7818 99.2754 14.8121 99.0848 14.8728C98.9028 14.9334 98.7381 15.0071 98.5908 15.0938C98.4521 15.1804 98.3308 15.2671 98.2268 15.3538C98.1228 15.4318 98.0448 15.4968 97.9928 15.5488L97.4598 14.7948C97.5291 14.7168 97.6331 14.6214 97.7718 14.5088C97.9104 14.3961 98.0751 14.2921 98.2658 14.1968C98.4651 14.0928 98.6861 14.0061 98.9288 13.9368C99.1714 13.8674 99.4314 13.8328 99.7088 13.8328C100.549 13.8328 101.169 14.0278 101.568 14.4178C101.975 14.7991 102.179 15.3494 102.179 16.0688ZM104.194 15.6788C104.636 15.5054 105.065 15.2888 105.481 15.0288C105.897 14.7601 106.282 14.4221 106.638 14.0148H107.392V21.1518H108.913V22.0618H104.584V21.1518H106.326V15.5098C106.23 15.5964 106.113 15.6874 105.975 15.7828C105.845 15.8694 105.697 15.9561 105.533 16.0428C105.377 16.1294 105.212 16.2118 105.039 16.2898C104.865 16.3678 104.696 16.4328 104.532 16.4848L104.194 15.6788ZM121.068 14.0148H122.134V22.0618H121.068V18.3178H117.87V22.0618H116.804V14.0148H117.87V17.4078H121.068V14.0148ZM128.699 19.0458C128.699 19.5224 128.629 19.9558 128.491 20.3458C128.361 20.7271 128.174 21.0564 127.932 21.3338C127.689 21.6111 127.399 21.8278 127.061 21.9838C126.723 22.1311 126.354 22.2048 125.956 22.2048C125.566 22.2048 125.202 22.1311 124.864 21.9838C124.534 21.8278 124.248 21.6111 124.006 21.3338C123.763 21.0564 123.572 20.7271 123.434 20.3458C123.304 19.9558 123.239 19.5224 123.239 19.0458C123.239 18.5691 123.304 18.1358 123.434 17.7458C123.572 17.3558 123.763 17.0264 124.006 16.7578C124.248 16.4804 124.534 16.2681 124.864 16.1208C125.202 15.9648 125.566 15.8868 125.956 15.8868C126.354 15.8868 126.723 15.9648 127.061 16.1208C127.399 16.2681 127.689 16.4804 127.932 16.7578C128.174 17.0264 128.361 17.3558 128.491 17.7458C128.629 18.1358 128.699 18.5691 128.699 19.0458ZM127.594 19.0458C127.594 18.3611 127.446 17.8238 127.152 17.4338C126.857 17.0351 126.458 16.8358 125.956 16.8358C125.462 16.8358 125.067 17.0351 124.773 17.4338C124.487 17.8238 124.344 18.3611 124.344 19.0458C124.344 19.7218 124.487 20.2591 124.773 20.6578C125.067 21.0478 125.462 21.2428 125.956 21.2428C126.458 21.2428 126.857 21.0478 127.152 20.6578C127.446 20.2591 127.594 19.7218 127.594 19.0458ZM134.796 21.8928C134.562 21.9534 134.25 22.0184 133.86 22.0878C133.478 22.1571 133.028 22.1918 132.508 22.1918C132.048 22.1918 131.667 22.1268 131.364 21.9968C131.06 21.8581 130.813 21.6674 130.623 21.4248C130.432 21.1734 130.298 20.8788 130.22 20.5408C130.142 20.2028 130.103 19.8301 130.103 19.4228V16.0298H131.169V19.1888C131.169 19.9341 131.277 20.4628 131.494 20.7748C131.719 21.0868 132.092 21.2428 132.612 21.2428C132.724 21.2428 132.837 21.2384 132.95 21.2298C133.071 21.2211 133.184 21.2124 133.288 21.2038C133.392 21.1864 133.483 21.1734 133.561 21.1648C133.639 21.1474 133.691 21.1344 133.717 21.1258V16.0298H134.796V21.8928ZM137.11 22.0618V16.3548C137.994 16.0514 138.886 15.8998 139.788 15.8998C140.065 15.8998 140.329 15.9128 140.581 15.9388C140.832 15.9561 141.109 15.9994 141.413 16.0688L141.218 17.0178C140.94 16.9398 140.693 16.8921 140.477 16.8748C140.269 16.8488 140.039 16.8358 139.788 16.8358C139.259 16.8358 138.722 16.9094 138.176 17.0568V22.0618H137.11ZM146.782 20.5538C146.782 20.3371 146.691 20.1594 146.509 20.0208C146.335 19.8821 146.114 19.7608 145.846 19.6568C145.586 19.5528 145.3 19.4531 144.988 19.3578C144.676 19.2538 144.385 19.1281 144.117 18.9808C143.857 18.8334 143.636 18.6514 143.454 18.4348C143.28 18.2181 143.194 17.9364 143.194 17.5898C143.194 17.1044 143.389 16.7014 143.779 16.3808C144.177 16.0514 144.797 15.8868 145.638 15.8868C145.967 15.8868 146.305 15.9128 146.652 15.9648C147.007 16.0081 147.31 16.0688 147.562 16.1468L147.367 17.1088C147.297 17.0741 147.202 17.0394 147.081 17.0048C146.959 16.9614 146.821 16.9268 146.665 16.9008C146.509 16.8661 146.34 16.8401 146.158 16.8228C145.984 16.8054 145.815 16.7968 145.651 16.7968C144.715 16.7968 144.247 17.0524 144.247 17.5638C144.247 17.7458 144.333 17.9018 144.507 18.0318C144.689 18.1531 144.914 18.2658 145.183 18.3698C145.451 18.4738 145.742 18.5821 146.054 18.6948C146.366 18.7988 146.656 18.9288 146.925 19.0848C147.193 19.2408 147.414 19.4314 147.588 19.6568C147.77 19.8734 147.861 20.1508 147.861 20.4888C147.861 21.0348 147.648 21.4594 147.224 21.7628C146.799 22.0574 146.127 22.2048 145.209 22.2048C144.793 22.2048 144.411 22.1701 144.065 22.1008C143.718 22.0314 143.389 21.9274 143.077 21.7888L143.285 20.8138C143.588 20.9524 143.904 21.0694 144.234 21.1648C144.572 21.2514 144.931 21.2948 145.313 21.2948C146.292 21.2948 146.782 21.0478 146.782 20.5538ZM160.471 22.0618L159.99 19.9558H156.896L156.428 22.0618H155.336C155.483 21.4898 155.648 20.8701 155.83 20.2028C156.012 19.5354 156.207 18.8508 156.415 18.1488C156.631 17.4468 156.857 16.7448 157.091 16.0428C157.325 15.3321 157.572 14.6561 157.832 14.0148H159.158C159.409 14.6561 159.647 15.3321 159.873 16.0428C160.107 16.7448 160.323 17.4468 160.523 18.1488C160.731 18.8508 160.926 19.5354 161.108 20.2028C161.29 20.8701 161.454 21.4898 161.602 22.0618H160.471ZM158.456 14.9508C158.256 15.4968 158.04 16.1294 157.806 16.8488C157.572 17.5681 157.351 18.3091 157.143 19.0718H159.743C159.543 18.2918 159.327 17.5421 159.093 16.8228C158.867 16.0948 158.655 15.4708 158.456 14.9508ZM166.217 21.5028C166.095 21.5721 165.909 21.6458 165.658 21.7238C165.406 21.8018 165.116 21.8408 164.787 21.8408C164.431 21.8408 164.098 21.7844 163.786 21.6718C163.482 21.5504 163.214 21.3728 162.98 21.1388C162.754 20.8961 162.572 20.5928 162.434 20.2288C162.304 19.8561 162.239 19.4184 162.239 18.9158C162.239 18.4738 162.299 18.0708 162.421 17.7068C162.551 17.3341 162.733 17.0134 162.967 16.7448C163.209 16.4761 163.504 16.2681 163.851 16.1208C164.197 15.9648 164.592 15.8868 165.034 15.8868C165.554 15.8868 165.996 15.9258 166.36 16.0038C166.732 16.0731 167.044 16.1424 167.296 16.2118V21.5938C167.296 22.5298 167.057 23.2058 166.581 23.6218C166.113 24.0378 165.402 24.2458 164.449 24.2458C164.059 24.2458 163.703 24.2154 163.383 24.1548C163.071 24.0941 162.793 24.0204 162.551 23.9338L162.746 22.9848C162.971 23.0801 163.227 23.1581 163.513 23.2188C163.807 23.2794 164.128 23.3098 164.475 23.3098C165.099 23.3098 165.545 23.1841 165.814 22.9328C166.082 22.6814 166.217 22.2741 166.217 21.7108V21.5028ZM166.217 16.9788C166.113 16.9441 165.97 16.9138 165.788 16.8878C165.606 16.8531 165.359 16.8358 165.047 16.8358C164.492 16.8358 164.067 17.0264 163.773 17.4078C163.487 17.7891 163.344 18.2961 163.344 18.9288C163.344 19.2754 163.383 19.5744 163.461 19.8258C163.547 20.0684 163.66 20.2721 163.799 20.4368C163.946 20.5928 164.111 20.7098 164.293 20.7878C164.475 20.8571 164.67 20.8918 164.878 20.8918C165.146 20.8918 165.398 20.8528 165.632 20.7748C165.874 20.6968 166.069 20.6058 166.217 20.5018V16.9788ZM174.199 19.0458C174.199 19.5224 174.129 19.9558 173.991 20.3458C173.861 20.7271 173.674 21.0564 173.432 21.3338C173.189 21.6111 172.899 21.8278 172.561 21.9838C172.223 22.1311 171.854 22.2048 171.456 22.2048C171.066 22.2048 170.702 22.1311 170.364 21.9838C170.034 21.8278 169.748 21.6111 169.506 21.3338C169.263 21.0564 169.072 20.7271 168.934 20.3458C168.804 19.9558 168.739 19.5224 168.739 19.0458C168.739 18.5691 168.804 18.1358 168.934 17.7458C169.072 17.3558 169.263 17.0264 169.506 16.7578C169.748 16.4804 170.034 16.2681 170.364 16.1208C170.702 15.9648 171.066 15.8868 171.456 15.8868C171.854 15.8868 172.223 15.9648 172.561 16.1208C172.899 16.2681 173.189 16.4804 173.432 16.7578C173.674 17.0264 173.861 17.3558 173.991 17.7458C174.129 18.1358 174.199 18.5691 174.199 19.0458ZM173.094 19.0458C173.094 18.3611 172.946 17.8238 172.652 17.4338C172.357 17.0351 171.958 16.8358 171.456 16.8358C170.962 16.8358 170.567 17.0351 170.273 17.4338C169.987 17.8238 169.844 18.3611 169.844 19.0458C169.844 19.7218 169.987 20.2591 170.273 20.6578C170.567 21.0478 170.962 21.2428 171.456 21.2428C171.958 21.2428 172.357 21.0478 172.652 20.6578C172.946 20.2591 173.094 19.7218 173.094 19.0458Z" fill="white"/>
<path d="M55.1264 54.6878H57.1674V52.4258H58.5454V54.6878H60.5864V56.0008H58.5454V58.2628H57.1674V56.0008H55.1264V54.6878ZM68.1784 55.7018C68.1784 55.2598 68.2478 54.8438 68.3864 54.4538C68.5251 54.0638 68.7374 53.7258 69.0234 53.4398C69.3094 53.1452 69.6691 52.9155 70.1024 52.7508C70.5444 52.5775 71.0688 52.4908 71.6754 52.4908C72.0394 52.4908 72.3688 52.5168 72.6634 52.5688C72.9581 52.6208 73.2571 52.7075 73.5604 52.8288L73.2094 54.1158C73.0361 54.0552 72.8411 54.0032 72.6244 53.9598C72.4164 53.9078 72.1478 53.8818 71.8184 53.8818C71.4371 53.8818 71.1164 53.9295 70.8564 54.0248C70.6051 54.1115 70.4014 54.2372 70.2454 54.4018C70.0894 54.5578 69.9768 54.7485 69.9074 54.9738C69.8381 55.1992 69.8034 55.4418 69.8034 55.7018C69.8034 56.2652 69.9594 56.7072 70.2714 57.0278C70.5921 57.3485 71.1338 57.5088 71.8964 57.5088C72.1478 57.5088 72.4078 57.4915 72.6764 57.4568C72.9538 57.4222 73.2051 57.3658 73.4304 57.2878L73.6644 58.6008C73.4391 58.6875 73.1661 58.7568 72.8454 58.8088C72.5248 58.8695 72.1478 58.8998 71.7144 58.8998C71.0904 58.8998 70.5531 58.8175 70.1024 58.6528C69.6604 58.4882 69.2964 58.2628 69.0104 57.9768C68.7244 57.6908 68.5121 57.3528 68.3734 56.9628C68.2434 56.5728 68.1784 56.1525 68.1784 55.7018ZM80.2424 55.6888C80.2424 56.1742 80.1731 56.6162 80.0344 57.0148C79.8958 57.4048 79.7008 57.7428 79.4494 58.0288C79.1981 58.3148 78.8948 58.5358 78.5394 58.6918C78.1928 58.8478 77.8028 58.9258 77.3694 58.9258C76.9361 58.9258 76.5418 58.8478 76.1864 58.6918C75.8398 58.5358 75.5364 58.3148 75.2764 58.0288C75.0251 57.7428 74.8301 57.4048 74.6914 57.0148C74.5528 56.6162 74.4834 56.1742 74.4834 55.6888C74.4834 55.2122 74.5528 54.7788 74.6914 54.3888C74.8388 53.9902 75.0381 53.6522 75.2894 53.3748C75.5494 53.0888 75.8571 52.8722 76.2124 52.7248C76.5678 52.5688 76.9534 52.4908 77.3694 52.4908C77.7941 52.4908 78.1798 52.5688 78.5264 52.7248C78.8818 52.8722 79.1851 53.0888 79.4364 53.3748C79.6964 53.6522 79.8958 53.9902 80.0344 54.3888C80.1731 54.7788 80.2424 55.2122 80.2424 55.6888ZM76.1084 55.7018C76.1084 56.2478 76.2038 56.6898 76.3944 57.0278C76.5938 57.3658 76.9101 57.5348 77.3434 57.5348C77.7594 57.5348 78.0714 57.3658 78.2794 57.0278C78.4961 56.6898 78.6044 56.2478 78.6044 55.7018C78.6044 55.1558 78.5048 54.7182 78.3054 54.3888C78.1148 54.0508 77.8028 53.8818 77.3694 53.8818C76.9534 53.8818 76.6371 54.0508 76.4204 54.3888C76.2124 54.7182 76.1084 55.1558 76.1084 55.7018ZM81.4254 52.8418C81.7114 52.7638 82.0624 52.6902 82.4784 52.6208C82.9031 52.5515 83.3624 52.5168 83.8564 52.5168C84.3418 52.5168 84.7448 52.5862 85.0654 52.7248C85.3861 52.8548 85.6374 53.0455 85.8194 53.2968C86.0101 53.5395 86.1444 53.8342 86.2224 54.1808C86.3004 54.5188 86.3394 54.8958 86.3394 55.3118V58.7568H84.7404V55.5198C84.7404 54.9478 84.6754 54.5362 84.5454 54.2848C84.4154 54.0335 84.1511 53.9078 83.7524 53.9078C83.6311 53.9078 83.5098 53.9122 83.3884 53.9208C83.2758 53.9295 83.1544 53.9425 83.0244 53.9598V58.7568H81.4254V52.8418ZM90.0704 57.5478C90.4604 57.5478 90.7594 57.5218 90.9674 57.4698C91.1754 57.4092 91.2794 57.2922 91.2794 57.1188C91.2794 57.0062 91.2448 56.9108 91.1754 56.8328C91.1148 56.7548 91.0238 56.6898 90.9024 56.6378C90.7898 56.5772 90.6554 56.5208 90.4994 56.4688C90.3521 56.4168 90.1961 56.3648 90.0314 56.3128C89.7974 56.2435 89.5591 56.1655 89.3164 56.0788C89.0738 55.9835 88.8528 55.8665 88.6534 55.7278C88.4541 55.5892 88.2894 55.4158 88.1594 55.2078C88.0294 54.9912 87.9644 54.7225 87.9644 54.4018C87.9644 54.1418 88.0121 53.8992 88.1074 53.6738C88.2114 53.4398 88.3674 53.2362 88.5754 53.0628C88.7921 52.8808 89.0651 52.7422 89.3944 52.6468C89.7238 52.5428 90.1181 52.4908 90.5774 52.4908C90.9761 52.4908 91.3444 52.5212 91.6824 52.5818C92.0291 52.6425 92.3281 52.7292 92.5794 52.8418L92.3324 54.1938C92.1851 54.1505 91.9554 54.0812 91.6434 53.9858C91.3314 53.8818 90.9804 53.8298 90.5904 53.8298C90.1831 53.8298 89.9058 53.8818 89.7584 53.9858C89.6198 54.0812 89.5504 54.1852 89.5504 54.2978C89.5504 54.3932 89.5808 54.4798 89.6414 54.5578C89.7108 54.6272 89.7974 54.6922 89.9014 54.7528C90.0141 54.8135 90.1398 54.8742 90.2784 54.9348C90.4258 54.9868 90.5818 55.0388 90.7464 55.0908C90.9804 55.1688 91.2231 55.2555 91.4744 55.3508C91.7258 55.4462 91.9511 55.5675 92.1504 55.7148C92.3584 55.8535 92.5274 56.0355 92.6574 56.2608C92.7874 56.4775 92.8524 56.7462 92.8524 57.0668C92.8524 57.3182 92.8048 57.5565 92.7094 57.7818C92.6141 58.0072 92.4538 58.2022 92.2284 58.3668C92.0118 58.5315 91.7258 58.6615 91.3704 58.7568C91.0151 58.8522 90.5774 58.8998 90.0574 58.8998C89.5288 58.8998 89.0781 58.8392 88.7054 58.7178C88.3328 58.5965 88.0338 58.4882 87.8084 58.3928L88.0554 57.0538C88.3588 57.1752 88.6794 57.2878 89.0174 57.3918C89.3641 57.4958 89.7151 57.5478 90.0704 57.5478ZM95.4654 53.9728H94.0744V52.6468H95.4654V51.1128L97.0644 50.8528V52.6468H99.6254V53.9728H97.0644V56.4428C97.0644 56.6682 97.0861 56.8502 97.1294 56.9888C97.1728 57.1275 97.2334 57.2358 97.3114 57.3138C97.3894 57.3918 97.4848 57.4438 97.5974 57.4698C97.7101 57.4958 97.8358 57.5088 97.9744 57.5088C98.1218 57.5088 98.2561 57.5045 98.3774 57.4958C98.5074 57.4872 98.6288 57.4742 98.7414 57.4568C98.8628 57.4308 98.9841 57.3962 99.1054 57.3528C99.2354 57.3095 99.3741 57.2532 99.5214 57.1838L99.7424 58.5618C99.4478 58.6832 99.1271 58.7698 98.7804 58.8218C98.4424 58.8738 98.1131 58.8998 97.7924 58.8998C97.4198 58.8998 97.0904 58.8695 96.8044 58.8088C96.5184 58.7482 96.2758 58.6312 96.0764 58.4578C95.8771 58.2845 95.7254 58.0418 95.6214 57.7298C95.5174 57.4092 95.4654 56.9932 95.4654 56.4818V53.9728ZM111.481 55.7538C111.481 55.0518 111.317 54.5102 110.987 54.1288C110.658 53.7388 110.229 53.5438 109.7 53.5438C109.406 53.5438 109.172 53.5568 108.998 53.5828C108.834 53.6088 108.704 53.6392 108.608 53.6738V57.4828C108.73 57.5955 108.907 57.6995 109.141 57.7948C109.375 57.8902 109.618 57.9378 109.869 57.9378C110.155 57.9378 110.398 57.8815 110.597 57.7688C110.805 57.6562 110.974 57.5045 111.104 57.3138C111.234 57.1145 111.33 56.8848 111.39 56.6248C111.451 56.3562 111.481 56.0658 111.481 55.7538ZM112.586 55.7538C112.586 56.2132 112.526 56.6378 112.404 57.0278C112.292 57.4092 112.123 57.7385 111.897 58.0158C111.681 58.2932 111.412 58.5098 111.091 58.6658C110.771 58.8218 110.407 58.8998 109.999 58.8998C109.679 58.8998 109.397 58.8608 109.154 58.7828C108.912 58.7048 108.73 58.6182 108.608 58.5228V60.9018H107.529V52.9068C107.763 52.8375 108.062 52.7682 108.426 52.6988C108.799 52.6295 109.224 52.5948 109.7 52.5948C110.134 52.5948 110.528 52.6685 110.883 52.8158C111.239 52.9632 111.542 53.1755 111.793 53.4528C112.045 53.7215 112.24 54.0508 112.378 54.4408C112.517 54.8308 112.586 55.2685 112.586 55.7538ZM114.497 58.7568V53.0498C115.381 52.7465 116.274 52.5948 117.175 52.5948C117.453 52.5948 117.717 52.6078 117.968 52.6338C118.22 52.6512 118.497 52.6945 118.8 52.7638L118.605 53.7128C118.328 53.6348 118.081 53.5872 117.864 53.5698C117.656 53.5438 117.427 53.5308 117.175 53.5308C116.647 53.5308 116.109 53.6045 115.563 53.7518V58.7568H114.497ZM125.586 55.7408C125.586 56.2175 125.517 56.6508 125.378 57.0408C125.248 57.4222 125.062 57.7515 124.819 58.0288C124.577 58.3062 124.286 58.5228 123.948 58.6788C123.61 58.8262 123.242 58.8998 122.843 58.8998C122.453 58.8998 122.089 58.8262 121.751 58.6788C121.422 58.5228 121.136 58.3062 120.893 58.0288C120.651 57.7515 120.46 57.4222 120.321 57.0408C120.191 56.6508 120.126 56.2175 120.126 55.7408C120.126 55.2642 120.191 54.8308 120.321 54.4408C120.46 54.0508 120.651 53.7215 120.893 53.4528C121.136 53.1755 121.422 52.9632 121.751 52.8158C122.089 52.6598 122.453 52.5818 122.843 52.5818C123.242 52.5818 123.61 52.6598 123.948 52.8158C124.286 52.9632 124.577 53.1755 124.819 53.4528C125.062 53.7215 125.248 54.0508 125.378 54.4408C125.517 54.8308 125.586 55.2642 125.586 55.7408ZM124.481 55.7408C124.481 55.0562 124.334 54.5188 124.039 54.1288C123.745 53.7302 123.346 53.5308 122.843 53.5308C122.349 53.5308 121.955 53.7302 121.66 54.1288C121.374 54.5188 121.231 55.0562 121.231 55.7408C121.231 56.4168 121.374 56.9542 121.66 57.3528C121.955 57.7428 122.349 57.9378 122.843 57.9378C123.346 57.9378 123.745 57.7428 124.039 57.3528C124.334 56.9542 124.481 56.4168 124.481 55.7408ZM126.743 55.7538C126.743 55.2078 126.83 54.7355 127.003 54.3368C127.177 53.9382 127.415 53.6088 127.718 53.3488C128.022 53.0888 128.373 52.8982 128.771 52.7768C129.179 52.6468 129.612 52.5818 130.071 52.5818C130.366 52.5818 130.656 52.6035 130.942 52.6468C131.237 52.6815 131.549 52.7508 131.878 52.8548L131.631 53.7778C131.345 53.6738 131.081 53.6088 130.838 53.5828C130.604 53.5482 130.366 53.5308 130.123 53.5308C129.811 53.5308 129.517 53.5742 129.239 53.6608C128.962 53.7388 128.719 53.8688 128.511 54.0508C128.312 54.2242 128.152 54.4538 128.03 54.7398C127.909 55.0172 127.848 55.3552 127.848 55.7538C127.848 56.1352 127.905 56.4645 128.017 56.7418C128.13 57.0105 128.286 57.2358 128.485 57.4178C128.693 57.5912 128.94 57.7212 129.226 57.8078C129.512 57.8945 129.829 57.9378 130.175 57.9378C130.453 57.9378 130.717 57.9248 130.968 57.8988C131.228 57.8642 131.51 57.7948 131.813 57.6908L131.969 58.5878C131.666 58.7005 131.358 58.7785 131.046 58.8218C130.734 58.8738 130.396 58.8998 130.032 58.8998C129.547 58.8998 129.101 58.8348 128.693 58.7048C128.295 58.5662 127.948 58.3668 127.653 58.1068C127.367 57.8468 127.142 57.5218 126.977 57.1318C126.821 56.7332 126.743 56.2738 126.743 55.7538ZM135.973 52.5818C136.788 52.5818 137.416 52.8375 137.858 53.3488C138.3 53.8515 138.521 54.6185 138.521 55.6498V56.0268H134.205C134.249 56.6508 134.452 57.1275 134.816 57.4568C135.189 57.7775 135.709 57.9378 136.376 57.9378C136.758 57.9378 137.083 57.9075 137.351 57.8468C137.62 57.7862 137.824 57.7212 137.962 57.6518L138.105 58.5618C137.975 58.6312 137.741 58.7048 137.403 58.7828C137.065 58.8608 136.684 58.8998 136.259 58.8998C135.739 58.8998 135.28 58.8218 134.881 58.6658C134.491 58.5012 134.166 58.2802 133.906 58.0028C133.646 57.7255 133.451 57.3962 133.321 57.0148C133.191 56.6248 133.126 56.2045 133.126 55.7538C133.126 55.2165 133.209 54.7485 133.373 54.3498C133.538 53.9512 133.755 53.6218 134.023 53.3618C134.292 53.1018 134.595 52.9068 134.933 52.7768C135.271 52.6468 135.618 52.5818 135.973 52.5818ZM137.429 55.1558C137.429 54.6445 137.295 54.2415 137.026 53.9468C136.758 53.6435 136.402 53.4918 135.96 53.4918C135.709 53.4918 135.479 53.5395 135.271 53.6348C135.072 53.7302 134.899 53.8558 134.751 54.0118C134.604 54.1678 134.487 54.3455 134.4 54.5448C134.314 54.7442 134.257 54.9478 134.231 55.1558H137.429ZM143.669 57.2488C143.669 57.0322 143.578 56.8545 143.396 56.7158C143.223 56.5772 143.002 56.4558 142.733 56.3518C142.473 56.2478 142.187 56.1482 141.875 56.0528C141.563 55.9488 141.273 55.8232 141.004 55.6758C140.744 55.5285 140.523 55.3465 140.341 55.1298C140.168 54.9132 140.081 54.6315 140.081 54.2848C140.081 53.7995 140.276 53.3965 140.666 53.0758C141.065 52.7465 141.685 52.5818 142.525 52.5818C142.855 52.5818 143.193 52.6078 143.539 52.6598C143.895 52.7032 144.198 52.7638 144.449 52.8418L144.254 53.8038C144.185 53.7692 144.09 53.7345 143.968 53.6998C143.847 53.6565 143.708 53.6218 143.552 53.5958C143.396 53.5612 143.227 53.5352 143.045 53.5178C142.872 53.5005 142.703 53.4918 142.538 53.4918C141.602 53.4918 141.134 53.7475 141.134 54.2588C141.134 54.4408 141.221 54.5968 141.394 54.7268C141.576 54.8482 141.802 54.9608 142.07 55.0648C142.339 55.1688 142.629 55.2772 142.941 55.3898C143.253 55.4938 143.544 55.6238 143.812 55.7798C144.081 55.9358 144.302 56.1265 144.475 56.3518C144.657 56.5685 144.748 56.8458 144.748 57.1838C144.748 57.7298 144.536 58.1545 144.111 58.4578C143.687 58.7525 143.015 58.8998 142.096 58.8998C141.68 58.8998 141.299 58.8652 140.952 58.7958C140.606 58.7265 140.276 58.6225 139.964 58.4838L140.172 57.5088C140.476 57.6475 140.792 57.7645 141.121 57.8598C141.459 57.9465 141.819 57.9898 142.2 57.9898C143.18 57.9898 143.669 57.7428 143.669 57.2488ZM150.169 57.2488C150.169 57.0322 150.078 56.8545 149.896 56.7158C149.723 56.5772 149.502 56.4558 149.233 56.3518C148.973 56.2478 148.687 56.1482 148.375 56.0528C148.063 55.9488 147.773 55.8232 147.504 55.6758C147.244 55.5285 147.023 55.3465 146.841 55.1298C146.668 54.9132 146.581 54.6315 146.581 54.2848C146.581 53.7995 146.776 53.3965 147.166 53.0758C147.565 52.7465 148.185 52.5818 149.025 52.5818C149.355 52.5818 149.693 52.6078 150.039 52.6598C150.395 52.7032 150.698 52.7638 150.949 52.8418L150.754 53.8038C150.685 53.7692 150.59 53.7345 150.468 53.6998C150.347 53.6565 150.208 53.6218 150.052 53.5958C149.896 53.5612 149.727 53.5352 149.545 53.5178C149.372 53.5005 149.203 53.4918 149.038 53.4918C148.102 53.4918 147.634 53.7475 147.634 54.2588C147.634 54.4408 147.721 54.5968 147.894 54.7268C148.076 54.8482 148.302 54.9608 148.57 55.0648C148.839 55.1688 149.129 55.2772 149.441 55.3898C149.753 55.4938 150.044 55.6238 150.312 55.7798C150.581 55.9358 150.802 56.1265 150.975 56.3518C151.157 56.5685 151.248 56.8458 151.248 57.1838C151.248 57.7298 151.036 58.1545 150.611 58.4578C150.187 58.7525 149.515 58.8998 148.596 58.8998C148.18 58.8998 147.799 58.8652 147.452 58.7958C147.106 58.7265 146.776 58.6225 146.464 58.4838L146.672 57.5088C146.976 57.6475 147.292 57.7645 147.621 57.8598C147.959 57.9465 148.319 57.9898 148.7 57.9898C149.68 57.9898 150.169 57.7428 150.169 57.2488ZM153.289 58.7568V50.7098H157.8V51.6198H154.355V54.0898H157.371V54.9998H154.355V57.8468H158.086V58.7568H153.289ZM159.997 58.7568V53.0498C160.881 52.7465 161.774 52.5948 162.675 52.5948C162.953 52.5948 163.217 52.6078 163.468 52.6338C163.72 52.6512 163.997 52.6945 164.3 52.7638L164.105 53.7128C163.828 53.6348 163.581 53.5872 163.364 53.5698C163.156 53.5438 162.927 53.5308 162.675 53.5308C162.147 53.5308 161.609 53.6045 161.063 53.7518V58.7568H159.997ZM166.497 58.7568V53.0498C167.381 52.7465 168.274 52.5948 169.175 52.5948C169.453 52.5948 169.717 52.6078 169.968 52.6338C170.22 52.6512 170.497 52.6945 170.8 52.7638L170.605 53.7128C170.328 53.6348 170.081 53.5872 169.864 53.5698C169.656 53.5438 169.427 53.5308 169.175 53.5308C168.647 53.5308 168.109 53.6045 167.563 53.7518V58.7568H166.497ZM177.586 55.7408C177.586 56.2175 177.517 56.6508 177.378 57.0408C177.248 57.4222 177.062 57.7515 176.819 58.0288C176.577 58.3062 176.286 58.5228 175.948 58.6788C175.61 58.8262 175.242 58.8998 174.843 58.8998C174.453 58.8998 174.089 58.8262 173.751 58.6788C173.422 58.5228 173.136 58.3062 172.893 58.0288C172.651 57.7515 172.46 57.4222 172.321 57.0408C172.191 56.6508 172.126 56.2175 172.126 55.7408C172.126 55.2642 172.191 54.8308 172.321 54.4408C172.46 54.0508 172.651 53.7215 172.893 53.4528C173.136 53.1755 173.422 52.9632 173.751 52.8158C174.089 52.6598 174.453 52.5818 174.843 52.5818C175.242 52.5818 175.61 52.6598 175.948 52.8158C176.286 52.9632 176.577 53.1755 176.819 53.4528C177.062 53.7215 177.248 54.0508 177.378 54.4408C177.517 54.8308 177.586 55.2642 177.586 55.7408ZM176.481 55.7408C176.481 55.0562 176.334 54.5188 176.039 54.1288C175.745 53.7302 175.346 53.5308 174.843 53.5308C174.349 53.5308 173.955 53.7302 173.66 54.1288C173.374 54.5188 173.231 55.0562 173.231 55.7408C173.231 56.4168 173.374 56.9542 173.66 57.3528C173.955 57.7428 174.349 57.9378 174.843 57.9378C175.346 57.9378 175.745 57.7428 176.039 57.3528C176.334 56.9542 176.481 56.4168 176.481 55.7408ZM179.497 58.7568V53.0498C180.381 52.7465 181.274 52.5948 182.175 52.5948C182.453 52.5948 182.717 52.6078 182.968 52.6338C183.22 52.6512 183.497 52.6945 183.8 52.7638L183.605 53.7128C183.328 53.6348 183.081 53.5872 182.864 53.5698C182.656 53.5438 182.427 53.5308 182.175 53.5308C181.647 53.5308 181.109 53.6045 180.563 53.7518V58.7568H179.497ZM191.704 56.1178H197.021V57.0408H191.704V56.1178ZM191.704 53.6478H197.021V54.5708H191.704V53.6478ZM209.098 50.4238C208.292 51.0478 207.677 51.7672 207.252 52.5818C206.828 53.3965 206.615 54.2848 206.615 55.2468C206.615 55.7322 206.663 56.1915 206.758 56.6248C206.862 57.0582 207.014 57.4742 207.213 57.8728C207.421 58.2715 207.681 58.6572 207.993 59.0298C208.314 59.4025 208.691 59.7752 209.124 60.1478L208.539 60.9278C207.543 60.1912 206.797 59.3375 206.303 58.3668C205.818 57.3875 205.575 56.3562 205.575 55.2728C205.575 54.1982 205.822 53.1712 206.316 52.1918C206.81 51.2125 207.551 50.3632 208.539 49.6438L209.111 50.4238H209.098ZM213.973 52.5818C214.788 52.5818 215.416 52.8375 215.858 53.3488C216.3 53.8515 216.521 54.6185 216.521 55.6498V56.0268H212.205C212.249 56.6508 212.452 57.1275 212.816 57.4568C213.189 57.7775 213.709 57.9378 214.376 57.9378C214.758 57.9378 215.083 57.9075 215.351 57.8468C215.62 57.7862 215.824 57.7212 215.962 57.6518L216.105 58.5618C215.975 58.6312 215.741 58.7048 215.403 58.7828C215.065 58.8608 214.684 58.8998 214.259 58.8998C213.739 58.8998 213.28 58.8218 212.881 58.6658C212.491 58.5012 212.166 58.2802 211.906 58.0028C211.646 57.7255 211.451 57.3962 211.321 57.0148C211.191 56.6248 211.126 56.2045 211.126 55.7538C211.126 55.2165 211.209 54.7485 211.373 54.3498C211.538 53.9512 211.755 53.6218 212.023 53.3618C212.292 53.1018 212.595 52.9068 212.933 52.7768C213.271 52.6468 213.618 52.5818 213.973 52.5818ZM215.429 55.1558C215.429 54.6445 215.295 54.2415 215.026 53.9468C214.758 53.6435 214.402 53.4918 213.96 53.4918C213.709 53.4918 213.479 53.5395 213.271 53.6348C213.072 53.7302 212.899 53.8558 212.751 54.0118C212.604 54.1678 212.487 54.3455 212.4 54.5448C212.314 54.7442 212.257 54.9478 212.231 55.1558H215.429ZM218.497 58.7568V53.0498C219.381 52.7465 220.274 52.5948 221.175 52.5948C221.453 52.5948 221.717 52.6078 221.968 52.6338C222.22 52.6512 222.497 52.6945 222.8 52.7638L222.605 53.7128C222.328 53.6348 222.081 53.5872 221.864 53.5698C221.656 53.5438 221.427 53.5308 221.175 53.5308C220.647 53.5308 220.109 53.6045 219.563 53.7518V58.7568H218.497ZM224.997 58.7568V53.0498C225.881 52.7465 226.774 52.5948 227.675 52.5948C227.953 52.5948 228.217 52.6078 228.468 52.6338C228.72 52.6512 228.997 52.6945 229.3 52.7638L229.105 53.7128C228.828 53.6348 228.581 53.5872 228.364 53.5698C228.156 53.5438 227.927 53.5308 227.675 53.5308C227.147 53.5308 226.609 53.6045 226.063 53.7518V58.7568H224.997ZM232.043 59.7838C232.199 59.7492 232.351 59.7145 232.498 59.6798C232.654 59.6452 232.797 59.5932 232.927 59.5238C233.057 59.4632 233.174 59.3808 233.278 59.2768C233.382 59.1815 233.465 59.0472 233.525 58.8738C233.248 58.8478 233.044 58.7438 232.914 58.5618C232.793 58.3712 232.732 58.1848 232.732 58.0028C232.732 57.6562 232.828 57.3962 233.018 57.2228C233.218 57.0408 233.443 56.9498 233.694 56.9498C234.015 56.9498 234.258 57.0668 234.422 57.3008C234.587 57.5262 234.669 57.8035 234.669 58.1328C234.669 58.3842 234.617 58.6442 234.513 58.9128C234.418 59.1902 234.266 59.4458 234.058 59.6798C233.859 59.9225 233.608 60.1262 233.304 60.2908C233.001 60.4642 232.641 60.5768 232.225 60.6288L232.043 59.7838ZM247.5 58.8998C247.119 58.8998 246.803 58.8478 246.551 58.7438C246.3 58.6398 246.101 58.4838 245.953 58.2758C245.806 58.0678 245.702 57.8122 245.641 57.5088C245.581 57.1968 245.55 56.8372 245.55 56.4298V50.7228H243.808V49.8128H246.616V56.4298C246.616 56.7332 246.634 56.9802 246.668 57.1708C246.712 57.3615 246.772 57.5175 246.85 57.6388C246.937 57.7515 247.041 57.8295 247.162 57.8728C247.284 57.9162 247.427 57.9378 247.591 57.9378C247.843 57.9378 248.077 57.9075 248.293 57.8468C248.51 57.7862 248.679 57.7212 248.8 57.6518L248.956 58.5618C248.904 58.5878 248.831 58.6225 248.735 58.6658C248.64 58.7005 248.527 58.7352 248.397 58.7698C248.267 58.8045 248.124 58.8348 247.968 58.8608C247.821 58.8868 247.665 58.8998 247.5 58.8998ZM252.323 51.7888C252.098 51.7888 251.903 51.7108 251.738 51.5548C251.574 51.3988 251.491 51.1865 251.491 50.9178C251.491 50.6492 251.574 50.4368 251.738 50.2808C251.903 50.1248 252.098 50.0468 252.323 50.0468C252.557 50.0468 252.752 50.1248 252.908 50.2808C253.073 50.4368 253.155 50.6492 253.155 50.9178C253.155 51.1865 253.073 51.3988 252.908 51.5548C252.752 51.7108 252.557 51.7888 252.323 51.7888ZM252.05 53.6218H250.308V52.7248H253.116V56.4298C253.116 57.0278 253.199 57.4308 253.363 57.6388C253.528 57.8382 253.775 57.9378 254.104 57.9378C254.356 57.9378 254.585 57.9075 254.793 57.8468C255.01 57.7862 255.179 57.7212 255.3 57.6518L255.456 58.5618C255.404 58.5878 255.331 58.6225 255.235 58.6658C255.14 58.7005 255.027 58.7352 254.897 58.7698C254.776 58.8045 254.637 58.8348 254.481 58.8608C254.334 58.8868 254.178 58.8998 254.013 58.8998C253.632 58.8998 253.316 58.8478 253.064 58.7438C252.813 58.6398 252.609 58.4838 252.453 58.2758C252.306 58.0678 252.202 57.8122 252.141 57.5088C252.081 57.1968 252.05 56.8372 252.05 56.4298V53.6218ZM257.029 52.8938C257.419 52.7985 257.805 52.7248 258.186 52.6728C258.576 52.6208 258.94 52.5948 259.278 52.5948C260.084 52.5948 260.691 52.8028 261.098 53.2188C261.514 53.6348 261.722 54.3022 261.722 55.2208V58.7568H260.656V55.4158C260.656 55.0258 260.622 54.7095 260.552 54.4668C260.483 54.2242 260.383 54.0378 260.253 53.9078C260.132 53.7692 259.98 53.6738 259.798 53.6218C259.625 53.5698 259.434 53.5438 259.226 53.5438C259.053 53.5438 258.867 53.5568 258.667 53.5828C258.477 53.6002 258.29 53.6262 258.108 53.6608V58.7568H257.029V52.8938ZM265.973 52.5818C266.788 52.5818 267.416 52.8375 267.858 53.3488C268.3 53.8515 268.521 54.6185 268.521 55.6498V56.0268H264.205C264.249 56.6508 264.452 57.1275 264.816 57.4568C265.189 57.7775 265.709 57.9378 266.376 57.9378C266.758 57.9378 267.083 57.9075 267.351 57.8468C267.62 57.7862 267.824 57.7212 267.962 57.6518L268.105 58.5618C267.975 58.6312 267.741 58.7048 267.403 58.7828C267.065 58.8608 266.684 58.8998 266.259 58.8998C265.739 58.8998 265.28 58.8218 264.881 58.6658C264.491 58.5012 264.166 58.2802 263.906 58.0028C263.646 57.7255 263.451 57.3962 263.321 57.0148C263.191 56.6248 263.126 56.2045 263.126 55.7538C263.126 55.2165 263.209 54.7485 263.373 54.3498C263.538 53.9512 263.755 53.6218 264.023 53.3618C264.292 53.1018 264.595 52.9068 264.933 52.7768C265.271 52.6468 265.618 52.5818 265.973 52.5818ZM267.429 55.1558C267.429 54.6445 267.295 54.2415 267.026 53.9468C266.758 53.6435 266.402 53.4918 265.96 53.4918C265.709 53.4918 265.479 53.5395 265.271 53.6348C265.072 53.7302 264.899 53.8558 264.751 54.0118C264.604 54.1678 264.487 54.3455 264.4 54.5448C264.314 54.7442 264.257 54.9478 264.231 55.1558H267.429ZM270.601 60.1478C271.407 59.5238 272.023 58.8045 272.447 57.9898C272.881 57.1752 273.097 56.2868 273.097 55.3248C273.097 54.8395 273.045 54.3802 272.941 53.9468C272.846 53.5135 272.694 53.0975 272.486 52.6988C272.278 52.3002 272.014 51.9145 271.693 51.5418C271.381 51.1692 271.009 50.7965 270.575 50.4238L271.16 49.6438C272.157 50.3805 272.898 51.2385 273.383 52.2178C273.877 53.1885 274.124 54.2155 274.124 55.2988C274.124 55.8362 274.059 56.3648 273.929 56.8848C273.808 57.4048 273.622 57.9075 273.37 58.3928C273.128 58.8695 272.82 59.3202 272.447 59.7448C272.083 60.1782 271.654 60.5725 271.16 60.9278L270.588 60.1478H270.601ZM282.704 56.1178H288.021V57.0408H282.704V56.1178ZM282.704 53.6478H288.021V54.5708H282.704V53.6478ZM289.243 53.7518L289.542 52.8548L294.56 54.9868V55.9098L289.542 58.0418L289.243 57.1448L293.364 55.4418L289.243 53.7518ZM302.633 54.8698H303.153C303.301 54.8698 303.431 54.8395 303.543 54.7788C303.656 54.7095 303.747 54.6228 303.816 54.5188C303.894 54.4062 303.951 54.2848 303.985 54.1548C304.029 54.0162 304.05 53.8775 304.05 53.7388V51.6458C304.05 51.3252 304.081 51.0435 304.141 50.8008C304.211 50.5582 304.323 50.3545 304.479 50.1898C304.635 50.0165 304.843 49.8865 305.103 49.7998C305.372 49.7132 305.706 49.6698 306.104 49.6698H307.157V50.5148H306.052C305.688 50.5148 305.428 50.5972 305.272 50.7618C305.125 50.9265 305.051 51.2255 305.051 51.6588V53.4528C305.051 54.0335 304.965 54.4625 304.791 54.7398C304.618 55.0085 304.419 55.1905 304.193 55.2858C304.419 55.3898 304.618 55.5848 304.791 55.8708C304.965 56.1568 305.051 56.5728 305.051 57.1188V58.9128C305.051 59.3462 305.129 59.6452 305.285 59.8098C305.441 59.9745 305.701 60.0568 306.065 60.0568H307.157V60.9018H306.104C305.706 60.9018 305.372 60.8585 305.103 60.7718C304.843 60.6852 304.635 60.5552 304.479 60.3818C304.323 60.2172 304.211 60.0135 304.141 59.7708C304.081 59.5282 304.05 59.2465 304.05 58.9258V56.8328C304.05 56.7028 304.029 56.5728 303.985 56.4428C303.951 56.3042 303.894 56.1828 303.816 56.0788C303.747 55.9662 303.656 55.8752 303.543 55.8058C303.439 55.7365 303.314 55.7018 303.166 55.7018H302.633V54.8698ZM55.2044 67.8828H57.3884V65.4908H58.3244V67.8828H60.5214V68.7928H58.3244V71.1978H57.3884V68.7928H55.2044V67.8828ZM81.2434 68.7538C81.2434 68.2078 81.3301 67.7355 81.5034 67.3368C81.6768 66.9382 81.9151 66.6088 82.2184 66.3488C82.5218 66.0888 82.8728 65.8982 83.2714 65.7768C83.6788 65.6468 84.1121 65.5818 84.5714 65.5818C84.8661 65.5818 85.1564 65.6035 85.4424 65.6468C85.7371 65.6815 86.0491 65.7508 86.3784 65.8548L86.1314 66.7778C85.8454 66.6738 85.5811 66.6088 85.3384 66.5828C85.1044 66.5482 84.8661 66.5308 84.6234 66.5308C84.3114 66.5308 84.0168 66.5742 83.7394 66.6608C83.4621 66.7388 83.2194 66.8688 83.0114 67.0508C82.8121 67.2242 82.6518 67.4538 82.5304 67.7398C82.4091 68.0172 82.3484 68.3552 82.3484 68.7538C82.3484 69.1352 82.4048 69.4645 82.5174 69.7418C82.6301 70.0105 82.7861 70.2358 82.9854 70.4178C83.1934 70.5912 83.4404 70.7212 83.7264 70.8078C84.0124 70.8945 84.3288 70.9378 84.6754 70.9378C84.9528 70.9378 85.2171 70.9248 85.4684 70.8988C85.7284 70.8642 86.0101 70.7948 86.3134 70.6908L86.4694 71.5878C86.1661 71.7005 85.8584 71.7785 85.5464 71.8218C85.2344 71.8738 84.8964 71.8998 84.5324 71.8998C84.0471 71.8998 83.6008 71.8348 83.1934 71.7048C82.7948 71.5662 82.4481 71.3668 82.1534 71.1068C81.8674 70.8468 81.6421 70.5218 81.4774 70.1318C81.3214 69.7332 81.2434 69.2738 81.2434 68.7538ZM93.0864 68.7408C93.0864 69.2175 93.0171 69.6508 92.8784 70.0408C92.7484 70.4222 92.5621 70.7515 92.3194 71.0288C92.0768 71.3062 91.7864 71.5228 91.4484 71.6788C91.1104 71.8262 90.7421 71.8998 90.3434 71.8998C89.9534 71.8998 89.5894 71.8262 89.2514 71.6788C88.9221 71.5228 88.6361 71.3062 88.3934 71.0288C88.1508 70.7515 87.9601 70.4222 87.8214 70.0408C87.6914 69.6508 87.6264 69.2175 87.6264 68.7408C87.6264 68.2642 87.6914 67.8308 87.8214 67.4408C87.9601 67.0508 88.1508 66.7215 88.3934 66.4528C88.6361 66.1755 88.9221 65.9632 89.2514 65.8158C89.5894 65.6598 89.9534 65.5818 90.3434 65.5818C90.7421 65.5818 91.1104 65.6598 91.4484 65.8158C91.7864 65.9632 92.0768 66.1755 92.3194 66.4528C92.5621 66.7215 92.7484 67.0508 92.8784 67.4408C93.0171 67.8308 93.0864 68.2642 93.0864 68.7408ZM91.9814 68.7408C91.9814 68.0562 91.8341 67.5188 91.5394 67.1288C91.2448 66.7302 90.8461 66.5308 90.3434 66.5308C89.8494 66.5308 89.4551 66.7302 89.1604 67.1288C88.8744 67.5188 88.7314 68.0562 88.7314 68.7408C88.7314 69.4168 88.8744 69.9542 89.1604 70.3528C89.4551 70.7428 89.8494 70.9378 90.3434 70.9378C90.8461 70.9378 91.2448 70.7428 91.5394 70.3528C91.8341 69.9542 91.9814 69.4168 91.9814 68.7408ZM94.5294 65.8938C94.9194 65.7985 95.3051 65.7248 95.6864 65.6728C96.0764 65.6208 96.4404 65.5948 96.7784 65.5948C97.5844 65.5948 98.1911 65.8028 98.5984 66.2188C99.0144 66.6348 99.2224 67.3022 99.2224 68.2208V71.7568H98.1564V68.4158C98.1564 68.0258 98.1218 67.7095 98.0524 67.4668C97.9831 67.2242 97.8834 67.0378 97.7534 66.9078C97.6321 66.7692 97.4804 66.6738 97.2984 66.6218C97.1251 66.5698 96.9344 66.5438 96.7264 66.5438C96.5531 66.5438 96.3668 66.5568 96.1674 66.5828C95.9768 66.6002 95.7904 66.6262 95.6084 66.6608V71.7568H94.5294V65.8938ZM104.669 70.2488C104.669 70.0322 104.578 69.8545 104.396 69.7158C104.223 69.5772 104.002 69.4558 103.733 69.3518C103.473 69.2478 103.187 69.1482 102.875 69.0528C102.563 68.9488 102.273 68.8232 102.004 68.6758C101.744 68.5285 101.523 68.3465 101.341 68.1298C101.168 67.9132 101.081 67.6315 101.081 67.2848C101.081 66.7995 101.276 66.3965 101.666 66.0758C102.065 65.7465 102.685 65.5818 103.525 65.5818C103.855 65.5818 104.193 65.6078 104.539 65.6598C104.895 65.7032 105.198 65.7638 105.449 65.8418L105.254 66.8038C105.185 66.7692 105.09 66.7345 104.968 66.6998C104.847 66.6565 104.708 66.6218 104.552 66.5958C104.396 66.5612 104.227 66.5352 104.045 66.5178C103.872 66.5005 103.703 66.4918 103.538 66.4918C102.602 66.4918 102.134 66.7475 102.134 67.2588C102.134 67.4408 102.221 67.5968 102.394 67.7268C102.576 67.8482 102.802 67.9608 103.07 68.0648C103.339 68.1688 103.629 68.2772 103.941 68.3898C104.253 68.4938 104.544 68.6238 104.812 68.7798C105.081 68.9358 105.302 69.1265 105.475 69.3518C105.657 69.5685 105.748 69.8458 105.748 70.1838C105.748 70.7298 105.536 71.1545 105.111 71.4578C104.687 71.7525 104.015 71.8998 103.096 71.8998C102.68 71.8998 102.299 71.8652 101.952 71.7958C101.606 71.7265 101.276 71.6225 100.964 71.4838L101.172 70.5088C101.476 70.6475 101.792 70.7645 102.121 70.8598C102.459 70.9465 102.819 70.9898 103.2 70.9898C104.18 70.9898 104.669 70.7428 104.669 70.2488ZM112.586 68.7408C112.586 69.2175 112.517 69.6508 112.378 70.0408C112.248 70.4222 112.062 70.7515 111.819 71.0288C111.577 71.3062 111.286 71.5228 110.948 71.6788C110.61 71.8262 110.242 71.8998 109.843 71.8998C109.453 71.8998 109.089 71.8262 108.751 71.6788C108.422 71.5228 108.136 71.3062 107.893 71.0288C107.651 70.7515 107.46 70.4222 107.321 70.0408C107.191 69.6508 107.126 69.2175 107.126 68.7408C107.126 68.2642 107.191 67.8308 107.321 67.4408C107.46 67.0508 107.651 66.7215 107.893 66.4528C108.136 66.1755 108.422 65.9632 108.751 65.8158C109.089 65.6598 109.453 65.5818 109.843 65.5818C110.242 65.5818 110.61 65.6598 110.948 65.8158C111.286 65.9632 111.577 66.1755 111.819 66.4528C112.062 66.7215 112.248 67.0508 112.378 67.4408C112.517 67.8308 112.586 68.2642 112.586 68.7408ZM111.481 68.7408C111.481 68.0562 111.334 67.5188 111.039 67.1288C110.745 66.7302 110.346 66.5308 109.843 66.5308C109.349 66.5308 108.955 66.7302 108.66 67.1288C108.374 67.5188 108.231 68.0562 108.231 68.7408C108.231 69.4168 108.374 69.9542 108.66 70.3528C108.955 70.7428 109.349 70.9378 109.843 70.9378C110.346 70.9378 110.745 70.7428 111.039 70.3528C111.334 69.9542 111.481 69.4168 111.481 68.7408ZM117.5 71.8998C117.119 71.8998 116.803 71.8478 116.551 71.7438C116.3 71.6398 116.101 71.4838 115.953 71.2758C115.806 71.0678 115.702 70.8122 115.641 70.5088C115.581 70.1968 115.55 69.8372 115.55 69.4298V63.7228H113.808V62.8128H116.616V69.4298C116.616 69.7332 116.634 69.9802 116.668 70.1708C116.712 70.3615 116.772 70.5175 116.85 70.6388C116.937 70.7515 117.041 70.8295 117.162 70.8728C117.284 70.9162 117.427 70.9378 117.591 70.9378C117.843 70.9378 118.077 70.9075 118.293 70.8468C118.51 70.7862 118.679 70.7212 118.8 70.6518L118.956 71.5618C118.904 71.5878 118.831 71.6225 118.735 71.6658C118.64 71.7005 118.527 71.7352 118.397 71.7698C118.267 71.8045 118.124 71.8348 117.968 71.8608C117.821 71.8868 117.665 71.8998 117.5 71.8998ZM122.973 65.5818C123.788 65.5818 124.416 65.8375 124.858 66.3488C125.3 66.8515 125.521 67.6185 125.521 68.6498V69.0268H121.205C121.249 69.6508 121.452 70.1275 121.816 70.4568C122.189 70.7775 122.709 70.9378 123.376 70.9378C123.758 70.9378 124.083 70.9075 124.351 70.8468C124.62 70.7862 124.824 70.7212 124.962 70.6518L125.105 71.5618C124.975 71.6312 124.741 71.7048 124.403 71.7828C124.065 71.8608 123.684 71.8998 123.259 71.8998C122.739 71.8998 122.28 71.8218 121.881 71.6658C121.491 71.5012 121.166 71.2802 120.906 71.0028C120.646 70.7255 120.451 70.3962 120.321 70.0148C120.191 69.6248 120.126 69.2045 120.126 68.7538C120.126 68.2165 120.209 67.7485 120.373 67.3498C120.538 66.9512 120.755 66.6218 121.023 66.3618C121.292 66.1018 121.595 65.9068 121.933 65.7768C122.271 65.6468 122.618 65.5818 122.973 65.5818ZM124.429 68.1558C124.429 67.6445 124.295 67.2415 124.026 66.9468C123.758 66.6435 123.402 66.4918 122.96 66.4918C122.709 66.4918 122.479 66.5395 122.271 66.6348C122.072 66.7302 121.899 66.8558 121.751 67.0118C121.604 67.1678 121.487 67.3455 121.4 67.5448C121.314 67.7442 121.257 67.9478 121.231 68.1558H124.429ZM130.318 70.9248C130.318 71.1848 130.232 71.4145 130.058 71.6138C129.885 71.8132 129.655 71.9128 129.369 71.9128C129.075 71.9128 128.841 71.8132 128.667 71.6138C128.494 71.4145 128.407 71.1848 128.407 70.9248C128.407 70.6562 128.494 70.4222 128.667 70.2228C128.841 70.0235 129.075 69.9238 129.369 69.9238C129.655 69.9238 129.885 70.0235 130.058 70.2228C130.232 70.4222 130.318 70.6562 130.318 70.9248ZM135.973 65.5818C136.788 65.5818 137.416 65.8375 137.858 66.3488C138.3 66.8515 138.521 67.6185 138.521 68.6498V69.0268H134.205C134.249 69.6508 134.452 70.1275 134.816 70.4568C135.189 70.7775 135.709 70.9378 136.376 70.9378C136.758 70.9378 137.083 70.9075 137.351 70.8468C137.62 70.7862 137.824 70.7212 137.962 70.6518L138.105 71.5618C137.975 71.6312 137.741 71.7048 137.403 71.7828C137.065 71.8608 136.684 71.8998 136.259 71.8998C135.739 71.8998 135.28 71.8218 134.881 71.6658C134.491 71.5012 134.166 71.2802 133.906 71.0028C133.646 70.7255 133.451 70.3962 133.321 70.0148C133.191 69.6248 133.126 69.2045 133.126 68.7538C133.126 68.2165 133.209 67.7485 133.373 67.3498C133.538 66.9512 133.755 66.6218 134.023 66.3618C134.292 66.1018 134.595 65.9068 134.933 65.7768C135.271 65.6468 135.618 65.5818 135.973 65.5818ZM137.429 68.1558C137.429 67.6445 137.295 67.2415 137.026 66.9468C136.758 66.6435 136.402 66.4918 135.96 66.4918C135.709 66.4918 135.479 66.5395 135.271 66.6348C135.072 66.7302 134.899 66.8558 134.751 67.0118C134.604 67.1678 134.487 67.3455 134.4 67.5448C134.314 67.7442 134.257 67.9478 134.231 68.1558H137.429ZM140.497 71.7568V66.0498C141.381 65.7465 142.274 65.5948 143.175 65.5948C143.453 65.5948 143.717 65.6078 143.968 65.6338C144.22 65.6512 144.497 65.6945 144.8 65.7638L144.605 66.7128C144.328 66.6348 144.081 66.5872 143.864 66.5698C143.656 66.5438 143.427 66.5308 143.175 66.5308C142.647 66.5308 142.109 66.6045 141.563 66.7518V71.7568H140.497ZM146.997 71.7568V66.0498C147.881 65.7465 148.774 65.5948 149.675 65.5948C149.953 65.5948 150.217 65.6078 150.468 65.6338C150.72 65.6512 150.997 65.6945 151.3 65.7638L151.105 66.7128C150.828 66.6348 150.581 66.5872 150.364 66.5698C150.156 66.5438 149.927 66.5308 149.675 66.5308C149.147 66.5308 148.609 66.6045 148.063 66.7518V71.7568H146.997ZM158.086 68.7408C158.086 69.2175 158.017 69.6508 157.878 70.0408C157.748 70.4222 157.562 70.7515 157.319 71.0288C157.077 71.3062 156.786 71.5228 156.448 71.6788C156.11 71.8262 155.742 71.8998 155.343 71.8998C154.953 71.8998 154.589 71.8262 154.251 71.6788C153.922 71.5228 153.636 71.3062 153.393 71.0288C153.151 70.7515 152.96 70.4222 152.821 70.0408C152.691 69.6508 152.626 69.2175 152.626 68.7408C152.626 68.2642 152.691 67.8308 152.821 67.4408C152.96 67.0508 153.151 66.7215 153.393 66.4528C153.636 66.1755 153.922 65.9632 154.251 65.8158C154.589 65.6598 154.953 65.5818 155.343 65.5818C155.742 65.5818 156.11 65.6598 156.448 65.8158C156.786 65.9632 157.077 66.1755 157.319 66.4528C157.562 66.7215 157.748 67.0508 157.878 67.4408C158.017 67.8308 158.086 68.2642 158.086 68.7408ZM156.981 68.7408C156.981 68.0562 156.834 67.5188 156.539 67.1288C156.245 66.7302 155.846 66.5308 155.343 66.5308C154.849 66.5308 154.455 66.7302 154.16 67.1288C153.874 67.5188 153.731 68.0562 153.731 68.7408C153.731 69.4168 153.874 69.9542 154.16 70.3528C154.455 70.7428 154.849 70.9378 155.343 70.9378C155.846 70.9378 156.245 70.7428 156.539 70.3528C156.834 69.9542 156.981 69.4168 156.981 68.7408ZM159.997 71.7568V66.0498C160.881 65.7465 161.774 65.5948 162.675 65.5948C162.953 65.5948 163.217 65.6078 163.468 65.6338C163.72 65.6512 163.997 65.6945 164.3 65.7638L164.105 66.7128C163.828 66.6348 163.581 66.5872 163.364 66.5698C163.156 66.5438 162.927 66.5308 162.675 66.5308C162.147 66.5308 161.609 66.6045 161.063 66.7518V71.7568H159.997ZM170.098 63.4238C169.292 64.0478 168.677 64.7672 168.252 65.5818C167.828 66.3965 167.615 67.2848 167.615 68.2468C167.615 68.7322 167.663 69.1915 167.758 69.6248C167.862 70.0582 168.014 70.4742 168.213 70.8728C168.421 71.2715 168.681 71.6572 168.993 72.0298C169.314 72.4025 169.691 72.7752 170.124 73.1478L169.539 73.9278C168.543 73.1912 167.797 72.3375 167.303 71.3668C166.818 70.3875 166.575 69.3562 166.575 68.2728C166.575 67.1982 166.822 66.1712 167.316 65.1918C167.81 64.2125 168.551 63.3632 169.539 62.6438L170.111 63.4238H170.098ZM176.169 63.3718C176.013 63.4065 175.857 63.4412 175.701 63.4758C175.554 63.5105 175.415 63.5625 175.285 63.6318C175.155 63.6925 175.038 63.7748 174.934 63.8788C174.83 63.9828 174.748 64.1172 174.687 64.2818C174.965 64.3078 175.164 64.4162 175.285 64.6068C175.415 64.7888 175.48 64.9708 175.48 65.1528C175.48 65.4995 175.381 65.7638 175.181 65.9458C174.982 66.1192 174.761 66.2058 174.518 66.2058C174.198 66.2058 173.955 66.0932 173.79 65.8678C173.626 65.6338 173.543 65.3522 173.543 65.0228C173.543 64.7715 173.591 64.5115 173.686 64.2428C173.79 63.9655 173.942 63.7098 174.141 63.4758C174.341 63.2332 174.592 63.0295 174.895 62.8648C175.207 62.6915 175.567 62.5788 175.974 62.5268L176.169 63.3718ZM179.926 67.9478H182.786V68.9618H179.926V67.9478ZM186.426 67.9478H189.286V68.9618H186.426V67.9478ZM192.926 67.9478H195.786V68.9618H192.926V67.9478ZM208.5 71.8998C208.119 71.8998 207.803 71.8478 207.551 71.7438C207.3 71.6398 207.101 71.4838 206.953 71.2758C206.806 71.0678 206.702 70.8122 206.641 70.5088C206.581 70.1968 206.55 69.8372 206.55 69.4298V63.7228H204.808V62.8128H207.616V69.4298C207.616 69.7332 207.634 69.9802 207.668 70.1708C207.712 70.3615 207.772 70.5175 207.85 70.6388C207.937 70.7515 208.041 70.8295 208.162 70.8728C208.284 70.9162 208.427 70.9378 208.591 70.9378C208.843 70.9378 209.077 70.9075 209.293 70.8468C209.51 70.7862 209.679 70.7212 209.8 70.6518L209.956 71.5618C209.904 71.5878 209.831 71.6225 209.735 71.6658C209.64 71.7005 209.527 71.7352 209.397 71.7698C209.267 71.8045 209.124 71.8348 208.968 71.8608C208.821 71.8868 208.665 71.8998 208.5 71.8998ZM216.586 68.7408C216.586 69.2175 216.517 69.6508 216.378 70.0408C216.248 70.4222 216.062 70.7515 215.819 71.0288C215.577 71.3062 215.286 71.5228 214.948 71.6788C214.61 71.8262 214.242 71.8998 213.843 71.8998C213.453 71.8998 213.089 71.8262 212.751 71.6788C212.422 71.5228 212.136 71.3062 211.893 71.0288C211.651 70.7515 211.46 70.4222 211.321 70.0408C211.191 69.6508 211.126 69.2175 211.126 68.7408C211.126 68.2642 211.191 67.8308 211.321 67.4408C211.46 67.0508 211.651 66.7215 211.893 66.4528C212.136 66.1755 212.422 65.9632 212.751 65.8158C213.089 65.6598 213.453 65.5818 213.843 65.5818C214.242 65.5818 214.61 65.6598 214.948 65.8158C215.286 65.9632 215.577 66.1755 215.819 66.4528C216.062 66.7215 216.248 67.0508 216.378 67.4408C216.517 67.8308 216.586 68.2642 216.586 68.7408ZM215.481 68.7408C215.481 68.0562 215.334 67.5188 215.039 67.1288C214.745 66.7302 214.346 66.5308 213.843 66.5308C213.349 66.5308 212.955 66.7302 212.66 67.1288C212.374 67.5188 212.231 68.0562 212.231 68.7408C212.231 69.4168 212.374 69.9542 212.66 70.3528C212.955 70.7428 213.349 70.9378 213.843 70.9378C214.346 70.9378 214.745 70.7428 215.039 70.3528C215.334 69.9542 215.481 69.4168 215.481 68.7408ZM221.604 71.1978C221.483 71.2672 221.297 71.3408 221.045 71.4188C220.794 71.4968 220.504 71.5358 220.174 71.5358C219.819 71.5358 219.485 71.4795 219.173 71.3668C218.87 71.2455 218.601 71.0678 218.367 70.8338C218.142 70.5912 217.96 70.2878 217.821 69.9238C217.691 69.5512 217.626 69.1135 217.626 68.6108C217.626 68.1688 217.687 67.7658 217.808 67.4018C217.938 67.0292 218.12 66.7085 218.354 66.4398C218.597 66.1712 218.892 65.9632 219.238 65.8158C219.585 65.6598 219.979 65.5818 220.421 65.5818C220.941 65.5818 221.383 65.6208 221.747 65.6988C222.12 65.7682 222.432 65.8375 222.683 65.9068V71.2888C222.683 72.2248 222.445 72.9008 221.968 73.3168C221.5 73.7328 220.79 73.9408 219.836 73.9408C219.446 73.9408 219.091 73.9105 218.77 73.8498C218.458 73.7892 218.181 73.7155 217.938 73.6288L218.133 72.6798C218.359 72.7752 218.614 72.8532 218.9 72.9138C219.195 72.9745 219.516 73.0048 219.862 73.0048C220.486 73.0048 220.933 72.8792 221.201 72.6278C221.47 72.3765 221.604 71.9692 221.604 71.4058V71.1978ZM221.604 66.6738C221.5 66.6392 221.357 66.6088 221.175 66.5828C220.993 66.5482 220.746 66.5308 220.434 66.5308C219.88 66.5308 219.455 66.7215 219.16 67.1028C218.874 67.4842 218.731 67.9912 218.731 68.6238C218.731 68.9705 218.77 69.2695 218.848 69.5208C218.935 69.7635 219.048 69.9672 219.186 70.1318C219.334 70.2878 219.498 70.4048 219.68 70.4828C219.862 70.5522 220.057 70.5868 220.265 70.5868C220.534 70.5868 220.785 70.5478 221.019 70.4698C221.262 70.3918 221.457 70.3008 221.604 70.1968V66.6738ZM234.669 70.2488C234.669 70.0322 234.578 69.8545 234.396 69.7158C234.223 69.5772 234.002 69.4558 233.733 69.3518C233.473 69.2478 233.187 69.1482 232.875 69.0528C232.563 68.9488 232.273 68.8232 232.004 68.6758C231.744 68.5285 231.523 68.3465 231.341 68.1298C231.168 67.9132 231.081 67.6315 231.081 67.2848C231.081 66.7995 231.276 66.3965 231.666 66.0758C232.065 65.7465 232.685 65.5818 233.525 65.5818C233.855 65.5818 234.193 65.6078 234.539 65.6598C234.895 65.7032 235.198 65.7638 235.449 65.8418L235.254 66.8038C235.185 66.7692 235.09 66.7345 234.968 66.6998C234.847 66.6565 234.708 66.6218 234.552 66.5958C234.396 66.5612 234.227 66.5352 234.045 66.5178C233.872 66.5005 233.703 66.4918 233.538 66.4918C232.602 66.4918 232.134 66.7475 232.134 67.2588C232.134 67.4408 232.221 67.5968 232.394 67.7268C232.576 67.8482 232.802 67.9608 233.07 68.0648C233.339 68.1688 233.629 68.2772 233.941 68.3898C234.253 68.4938 234.544 68.6238 234.812 68.7798C235.081 68.9358 235.302 69.1265 235.475 69.3518C235.657 69.5685 235.748 69.8458 235.748 70.1838C235.748 70.7298 235.536 71.1545 235.111 71.4578C234.687 71.7525 234.015 71.8998 233.096 71.8998C232.68 71.8998 232.299 71.8652 231.952 71.7958C231.606 71.7265 231.276 71.6225 230.964 71.4838L231.172 70.5088C231.476 70.6475 231.792 70.7645 232.121 70.8598C232.459 70.9465 232.819 70.9898 233.2 70.9898C234.18 70.9898 234.669 70.7428 234.669 70.2488ZM239.765 65.7248H242.313V66.6218H239.765V69.4298C239.765 69.7332 239.787 69.9802 239.83 70.1708C239.874 70.3615 239.943 70.5175 240.038 70.6388C240.142 70.7515 240.272 70.8295 240.428 70.8728C240.584 70.9162 240.775 70.9378 241 70.9378C241.312 70.9378 241.564 70.9118 241.754 70.8598C241.945 70.8078 242.127 70.7385 242.3 70.6518L242.456 71.5618C242.335 71.6138 242.14 71.6832 241.871 71.7698C241.611 71.8565 241.286 71.8998 240.896 71.8998C240.446 71.8998 240.077 71.8478 239.791 71.7438C239.505 71.6398 239.28 71.4838 239.115 71.2758C238.959 71.0678 238.851 70.8122 238.79 70.5088C238.73 70.1968 238.699 69.8372 238.699 69.4298V66.6218H237.425V65.7248H238.699V64.0348L239.765 63.8528V65.7248ZM246.421 70.9898C246.69 70.9898 246.928 70.9812 247.136 70.9638C247.353 70.9465 247.531 70.9248 247.669 70.8988V69.1048C247.531 69.0615 247.362 69.0268 247.162 69.0008C246.972 68.9748 246.768 68.9618 246.551 68.9618C246.352 68.9618 246.157 68.9792 245.966 69.0138C245.776 69.0398 245.607 69.0918 245.459 69.1698C245.312 69.2478 245.191 69.3518 245.095 69.4818C245 69.6032 244.952 69.7592 244.952 69.9498C244.952 70.3398 245.082 70.6128 245.342 70.7688C245.611 70.9162 245.971 70.9898 246.421 70.9898ZM246.317 65.5818C246.768 65.5818 247.145 65.6382 247.448 65.7508C247.76 65.8635 248.012 66.0195 248.202 66.2188C248.393 66.4182 248.527 66.6608 248.605 66.9468C248.683 67.2328 248.722 67.5448 248.722 67.8828V71.6528C248.471 71.6962 248.137 71.7482 247.721 71.8088C247.314 71.8695 246.894 71.8998 246.46 71.8998C246.131 71.8998 245.81 71.8695 245.498 71.8088C245.186 71.7568 244.909 71.6615 244.666 71.5228C244.424 71.3755 244.229 71.1762 244.081 70.9248C243.934 70.6735 243.86 70.3528 243.86 69.9628C243.86 69.6162 243.934 69.3258 244.081 69.0918C244.237 68.8492 244.432 68.6542 244.666 68.5068C244.909 68.3595 245.182 68.2555 245.485 68.1948C245.797 68.1255 246.109 68.0908 246.421 68.0908C246.846 68.0908 247.262 68.1385 247.669 68.2338V67.9348C247.669 67.7528 247.648 67.5795 247.604 67.4148C247.57 67.2415 247.496 67.0855 247.383 66.9468C247.279 66.8082 247.132 66.6998 246.941 66.6218C246.759 66.5352 246.521 66.4918 246.226 66.4918C245.854 66.4918 245.529 66.5178 245.251 66.5698C244.974 66.6218 244.762 66.6738 244.614 66.7258L244.484 65.8418C244.632 65.7725 244.874 65.7118 245.212 65.6598C245.559 65.6078 245.927 65.5818 246.317 65.5818ZM250.997 71.7568V66.0498C251.881 65.7465 252.774 65.5948 253.675 65.5948C253.953 65.5948 254.217 65.6078 254.468 65.6338C254.72 65.6512 254.997 65.6945 255.3 65.7638L255.105 66.7128C254.828 66.6348 254.581 66.5872 254.364 66.5698C254.156 66.5438 253.927 66.5308 253.675 66.5308C253.147 66.5308 252.609 66.6045 252.063 66.7518V71.7568H250.997ZM259.265 65.7248H261.813V66.6218H259.265V69.4298C259.265 69.7332 259.287 69.9802 259.33 70.1708C259.374 70.3615 259.443 70.5175 259.538 70.6388C259.642 70.7515 259.772 70.8295 259.928 70.8728C260.084 70.9162 260.275 70.9378 260.5 70.9378C260.812 70.9378 261.064 70.9118 261.254 70.8598C261.445 70.8078 261.627 70.7385 261.8 70.6518L261.956 71.5618C261.835 71.6138 261.64 71.6832 261.371 71.7698C261.111 71.8565 260.786 71.8998 260.396 71.8998C259.946 71.8998 259.577 71.8478 259.291 71.7438C259.005 71.6398 258.78 71.4838 258.615 71.2758C258.459 71.0678 258.351 70.8122 258.29 70.5088C258.23 70.1968 258.199 69.8372 258.199 69.4298V66.6218H256.925V65.7248H258.199V64.0348L259.265 63.8528V65.7248ZM270.926 67.9478H273.786V68.9618H270.926V67.9478ZM277.426 67.9478H280.286V68.9618H277.426V67.9478ZM283.926 67.9478H286.786V68.9618H283.926V67.9478ZM290.53 65.3998C290.686 65.3652 290.838 65.3305 290.985 65.2958C291.141 65.2612 291.284 65.2135 291.414 65.1528C291.544 65.0835 291.661 65.0012 291.765 64.9058C291.869 64.8018 291.952 64.6632 292.012 64.4898C291.735 64.4638 291.531 64.3598 291.401 64.1778C291.28 63.9872 291.219 63.8008 291.219 63.6188C291.219 63.2722 291.319 63.0122 291.518 62.8388C291.718 62.6568 291.939 62.5658 292.181 62.5658C292.502 62.5658 292.745 62.6828 292.909 62.9168C293.074 63.1422 293.156 63.4195 293.156 63.7488C293.156 64.0002 293.104 64.2645 293 64.5418C292.905 64.8105 292.753 65.0662 292.545 65.3088C292.346 65.5428 292.095 65.7465 291.791 65.9198C291.488 66.0845 291.133 66.1928 290.725 66.2448L290.53 65.3998ZM296.601 73.1478C297.407 72.5238 298.023 71.8045 298.447 70.9898C298.881 70.1752 299.097 69.2868 299.097 68.3248C299.097 67.8395 299.045 67.3802 298.941 66.9468C298.846 66.5135 298.694 66.0975 298.486 65.6988C298.278 65.3002 298.014 64.9145 297.693 64.5418C297.381 64.1692 297.009 63.7965 296.575 63.4238L297.16 62.6438C298.157 63.3805 298.898 64.2385 299.383 65.2178C299.877 66.1885 300.124 67.2155 300.124 68.2988C300.124 68.8362 300.059 69.3648 299.929 69.8848C299.808 70.4048 299.622 70.9075 299.37 71.3928C299.128 71.8695 298.82 72.3202 298.447 72.7448C298.083 73.1782 297.654 73.5725 297.16 73.9278L296.588 73.1478H296.601ZM303.231 72.7838C303.387 72.7492 303.539 72.7145 303.686 72.6798C303.842 72.6452 303.985 72.5932 304.115 72.5238C304.245 72.4632 304.362 72.3808 304.466 72.2768C304.57 72.1815 304.653 72.0472 304.713 71.8738C304.436 71.8478 304.232 71.7438 304.102 71.5618C303.981 71.3712 303.92 71.1848 303.92 71.0028C303.92 70.6562 304.016 70.3962 304.206 70.2228C304.406 70.0408 304.631 69.9498 304.882 69.9498C305.203 69.9498 305.446 70.0668 305.61 70.3008C305.775 70.5262 305.857 70.8035 305.857 71.1328C305.857 71.3842 305.805 71.6442 305.701 71.9128C305.606 72.1902 305.454 72.4458 305.246 72.6798C305.047 72.9225 304.796 73.1262 304.492 73.2908C304.189 73.4642 303.829 73.5768 303.413 73.6288L303.231 72.7838ZM305.818 66.7258C305.818 66.9858 305.732 67.2155 305.558 67.4148C305.385 67.6142 305.155 67.7138 304.869 67.7138C304.575 67.7138 304.341 67.6142 304.167 67.4148C303.994 67.2155 303.907 66.9858 303.907 66.7258C303.907 66.4572 303.994 66.2232 304.167 66.0238C304.341 65.8245 304.575 65.7248 304.869 65.7248C305.155 65.7248 305.385 65.8245 305.558 66.0238C305.732 66.2232 305.818 66.4572 305.818 66.7258ZM55.1264 80.6878H57.1674V78.4258H58.5454V80.6878H60.5864V82.0008H58.5454V84.2628H57.1674V82.0008H55.1264V80.6878ZM81.2434 81.7538C81.2434 81.2078 81.3301 80.7355 81.5034 80.3368C81.6768 79.9382 81.9151 79.6088 82.2184 79.3488C82.5218 79.0888 82.8728 78.8982 83.2714 78.7768C83.6788 78.6468 84.1121 78.5818 84.5714 78.5818C84.8661 78.5818 85.1564 78.6035 85.4424 78.6468C85.7371 78.6815 86.0491 78.7508 86.3784 78.8548L86.1314 79.7778C85.8454 79.6738 85.5811 79.6088 85.3384 79.5828C85.1044 79.5482 84.8661 79.5308 84.6234 79.5308C84.3114 79.5308 84.0168 79.5742 83.7394 79.6608C83.4621 79.7388 83.2194 79.8688 83.0114 80.0508C82.8121 80.2242 82.6518 80.4538 82.5304 80.7398C82.4091 81.0172 82.3484 81.3552 82.3484 81.7538C82.3484 82.1352 82.4048 82.4645 82.5174 82.7418C82.6301 83.0105 82.7861 83.2358 82.9854 83.4178C83.1934 83.5912 83.4404 83.7212 83.7264 83.8078C84.0124 83.8945 84.3288 83.9378 84.6754 83.9378C84.9528 83.9378 85.2171 83.9248 85.4684 83.8988C85.7284 83.8642 86.0101 83.7948 86.3134 83.6908L86.4694 84.5878C86.1661 84.7005 85.8584 84.7785 85.5464 84.8218C85.2344 84.8738 84.8964 84.8998 84.5324 84.8998C84.0471 84.8998 83.6008 84.8348 83.1934 84.7048C82.7948 84.5662 82.4481 84.3668 82.1534 84.1068C81.8674 83.8468 81.6421 83.5218 81.4774 83.1318C81.3214 82.7332 81.2434 82.2738 81.2434 81.7538ZM93.0864 81.7408C93.0864 82.2175 93.0171 82.6508 92.8784 83.0408C92.7484 83.4222 92.5621 83.7515 92.3194 84.0288C92.0768 84.3062 91.7864 84.5228 91.4484 84.6788C91.1104 84.8262 90.7421 84.8998 90.3434 84.8998C89.9534 84.8998 89.5894 84.8262 89.2514 84.6788C88.9221 84.5228 88.6361 84.3062 88.3934 84.0288C88.1508 83.7515 87.9601 83.4222 87.8214 83.0408C87.6914 82.6508 87.6264 82.2175 87.6264 81.7408C87.6264 81.2642 87.6914 80.8308 87.8214 80.4408C87.9601 80.0508 88.1508 79.7215 88.3934 79.4528C88.6361 79.1755 88.9221 78.9632 89.2514 78.8158C89.5894 78.6598 89.9534 78.5818 90.3434 78.5818C90.7421 78.5818 91.1104 78.6598 91.4484 78.8158C91.7864 78.9632 92.0768 79.1755 92.3194 79.4528C92.5621 79.7215 92.7484 80.0508 92.8784 80.4408C93.0171 80.8308 93.0864 81.2642 93.0864 81.7408ZM91.9814 81.7408C91.9814 81.0562 91.8341 80.5188 91.5394 80.1288C91.2448 79.7302 90.8461 79.5308 90.3434 79.5308C89.8494 79.5308 89.4551 79.7302 89.1604 80.1288C88.8744 80.5188 88.7314 81.0562 88.7314 81.7408C88.7314 82.4168 88.8744 82.9542 89.1604 83.3528C89.4551 83.7428 89.8494 83.9378 90.3434 83.9378C90.8461 83.9378 91.2448 83.7428 91.5394 83.3528C91.8341 82.9542 91.9814 82.4168 91.9814 81.7408ZM94.5294 78.8938C94.9194 78.7985 95.3051 78.7248 95.6864 78.6728C96.0764 78.6208 96.4404 78.5948 96.7784 78.5948C97.5844 78.5948 98.1911 78.8028 98.5984 79.2188C99.0144 79.6348 99.2224 80.3022 99.2224 81.2208V84.7568H98.1564V81.4158C98.1564 81.0258 98.1218 80.7095 98.0524 80.4668C97.9831 80.2242 97.8834 80.0378 97.7534 79.9078C97.6321 79.7692 97.4804 79.6738 97.2984 79.6218C97.1251 79.5698 96.9344 79.5438 96.7264 79.5438C96.5531 79.5438 96.3668 79.5568 96.1674 79.5828C95.9768 79.6002 95.7904 79.6262 95.6084 79.6608V84.7568H94.5294V78.8938ZM104.669 83.2488C104.669 83.0322 104.578 82.8545 104.396 82.7158C104.223 82.5772 104.002 82.4558 103.733 82.3518C103.473 82.2478 103.187 82.1482 102.875 82.0528C102.563 81.9488 102.273 81.8232 102.004 81.6758C101.744 81.5285 101.523 81.3465 101.341 81.1298C101.168 80.9132 101.081 80.6315 101.081 80.2848C101.081 79.7995 101.276 79.3965 101.666 79.0758C102.065 78.7465 102.685 78.5818 103.525 78.5818C103.855 78.5818 104.193 78.6078 104.539 78.6598C104.895 78.7032 105.198 78.7638 105.449 78.8418L105.254 79.8038C105.185 79.7692 105.09 79.7345 104.968 79.6998C104.847 79.6565 104.708 79.6218 104.552 79.5958C104.396 79.5612 104.227 79.5352 104.045 79.5178C103.872 79.5005 103.703 79.4918 103.538 79.4918C102.602 79.4918 102.134 79.7475 102.134 80.2588C102.134 80.4408 102.221 80.5968 102.394 80.7268C102.576 80.8482 102.802 80.9608 103.07 81.0648C103.339 81.1688 103.629 81.2772 103.941 81.3898C104.253 81.4938 104.544 81.6238 104.812 81.7798C105.081 81.9358 105.302 82.1265 105.475 82.3518C105.657 82.5685 105.748 82.8458 105.748 83.1838C105.748 83.7298 105.536 84.1545 105.111 84.4578C104.687 84.7525 104.015 84.8998 103.096 84.8998C102.68 84.8998 102.299 84.8652 101.952 84.7958C101.606 84.7265 101.276 84.6225 100.964 84.4838L101.172 83.5088C101.476 83.6475 101.792 83.7645 102.121 83.8598C102.459 83.9465 102.819 83.9898 103.2 83.9898C104.18 83.9898 104.669 83.7428 104.669 83.2488ZM112.586 81.7408C112.586 82.2175 112.517 82.6508 112.378 83.0408C112.248 83.4222 112.062 83.7515 111.819 84.0288C111.577 84.3062 111.286 84.5228 110.948 84.6788C110.61 84.8262 110.242 84.8998 109.843 84.8998C109.453 84.8998 109.089 84.8262 108.751 84.6788C108.422 84.5228 108.136 84.3062 107.893 84.0288C107.651 83.7515 107.46 83.4222 107.321 83.0408C107.191 82.6508 107.126 82.2175 107.126 81.7408C107.126 81.2642 107.191 80.8308 107.321 80.4408C107.46 80.0508 107.651 79.7215 107.893 79.4528C108.136 79.1755 108.422 78.9632 108.751 78.8158C109.089 78.6598 109.453 78.5818 109.843 78.5818C110.242 78.5818 110.61 78.6598 110.948 78.8158C111.286 78.9632 111.577 79.1755 111.819 79.4528C112.062 79.7215 112.248 80.0508 112.378 80.4408C112.517 80.8308 112.586 81.2642 112.586 81.7408ZM111.481 81.7408C111.481 81.0562 111.334 80.5188 111.039 80.1288C110.745 79.7302 110.346 79.5308 109.843 79.5308C109.349 79.5308 108.955 79.7302 108.66 80.1288C108.374 80.5188 108.231 81.0562 108.231 81.7408C108.231 82.4168 108.374 82.9542 108.66 83.3528C108.955 83.7428 109.349 83.9378 109.843 83.9378C110.346 83.9378 110.745 83.7428 111.039 83.3528C111.334 82.9542 111.481 82.4168 111.481 81.7408ZM117.5 84.8998C117.119 84.8998 116.803 84.8478 116.551 84.7438C116.3 84.6398 116.101 84.4838 115.953 84.2758C115.806 84.0678 115.702 83.8122 115.641 83.5088C115.581 83.1968 115.55 82.8372 115.55 82.4298V76.7228H113.808V75.8128H116.616V82.4298C116.616 82.7332 116.634 82.9802 116.668 83.1708C116.712 83.3615 116.772 83.5175 116.85 83.6388C116.937 83.7515 117.041 83.8295 117.162 83.8728C117.284 83.9162 117.427 83.9378 117.591 83.9378C117.843 83.9378 118.077 83.9075 118.293 83.8468C118.51 83.7862 118.679 83.7212 118.8 83.6518L118.956 84.5618C118.904 84.5878 118.831 84.6225 118.735 84.6658C118.64 84.7005 118.527 84.7352 118.397 84.7698C118.267 84.8045 118.124 84.8348 117.968 84.8608C117.821 84.8868 117.665 84.8998 117.5 84.8998ZM122.973 78.5818C123.788 78.5818 124.416 78.8375 124.858 79.3488C125.3 79.8515 125.521 80.6185 125.521 81.6498V82.0268H121.205C121.249 82.6508 121.452 83.1275 121.816 83.4568C122.189 83.7775 122.709 83.9378 123.376 83.9378C123.758 83.9378 124.083 83.9075 124.351 83.8468C124.62 83.7862 124.824 83.7212 124.962 83.6518L125.105 84.5618C124.975 84.6312 124.741 84.7048 124.403 84.7828C124.065 84.8608 123.684 84.8998 123.259 84.8998C122.739 84.8998 122.28 84.8218 121.881 84.6658C121.491 84.5012 121.166 84.2802 120.906 84.0028C120.646 83.7255 120.451 83.3962 120.321 83.0148C120.191 82.6248 120.126 82.2045 120.126 81.7538C120.126 81.2165 120.209 80.7485 120.373 80.3498C120.538 79.9512 120.755 79.6218 121.023 79.3618C121.292 79.1018 121.595 78.9068 121.933 78.7768C122.271 78.6468 122.618 78.5818 122.973 78.5818ZM124.429 81.1558C124.429 80.6445 124.295 80.2415 124.026 79.9468C123.758 79.6435 123.402 79.4918 122.96 79.4918C122.709 79.4918 122.479 79.5395 122.271 79.6348C122.072 79.7302 121.899 79.8558 121.751 80.0118C121.604 80.1678 121.487 80.3455 121.4 80.5448C121.314 80.7442 121.257 80.9478 121.231 81.1558H124.429ZM130.318 83.9248C130.318 84.1848 130.232 84.4145 130.058 84.6138C129.885 84.8132 129.655 84.9128 129.369 84.9128C129.075 84.9128 128.841 84.8132 128.667 84.6138C128.494 84.4145 128.407 84.1848 128.407 83.9248C128.407 83.6562 128.494 83.4222 128.667 83.2228C128.841 83.0235 129.075 82.9238 129.369 82.9238C129.655 82.9238 129.885 83.0235 130.058 83.2228C130.232 83.4222 130.318 83.6562 130.318 83.9248ZM135.973 78.5818C136.788 78.5818 137.416 78.8375 137.858 79.3488C138.3 79.8515 138.521 80.6185 138.521 81.6498V82.0268H134.205C134.249 82.6508 134.452 83.1275 134.816 83.4568C135.189 83.7775 135.709 83.9378 136.376 83.9378C136.758 83.9378 137.083 83.9075 137.351 83.8468C137.62 83.7862 137.824 83.7212 137.962 83.6518L138.105 84.5618C137.975 84.6312 137.741 84.7048 137.403 84.7828C137.065 84.8608 136.684 84.8998 136.259 84.8998C135.739 84.8998 135.28 84.8218 134.881 84.6658C134.491 84.5012 134.166 84.2802 133.906 84.0028C133.646 83.7255 133.451 83.3962 133.321 83.0148C133.191 82.6248 133.126 82.2045 133.126 81.7538C133.126 81.2165 133.209 80.7485 133.373 80.3498C133.538 79.9512 133.755 79.6218 134.023 79.3618C134.292 79.1018 134.595 78.9068 134.933 78.7768C135.271 78.6468 135.618 78.5818 135.973 78.5818ZM137.429 81.1558C137.429 80.6445 137.295 80.2415 137.026 79.9468C136.758 79.6435 136.402 79.4918 135.96 79.4918C135.709 79.4918 135.479 79.5395 135.271 79.6348C135.072 79.7302 134.899 79.8558 134.751 80.0118C134.604 80.1678 134.487 80.3455 134.4 80.5448C134.314 80.7442 134.257 80.9478 134.231 81.1558H137.429ZM140.497 84.7568V79.0498C141.381 78.7465 142.274 78.5948 143.175 78.5948C143.453 78.5948 143.717 78.6078 143.968 78.6338C144.22 78.6512 144.497 78.6945 144.8 78.7638L144.605 79.7128C144.328 79.6348 144.081 79.5872 143.864 79.5698C143.656 79.5438 143.427 79.5308 143.175 79.5308C142.647 79.5308 142.109 79.6045 141.563 79.7518V84.7568H140.497ZM146.997 84.7568V79.0498C147.881 78.7465 148.774 78.5948 149.675 78.5948C149.953 78.5948 150.217 78.6078 150.468 78.6338C150.72 78.6512 150.997 78.6945 151.3 78.7638L151.105 79.7128C150.828 79.6348 150.581 79.5872 150.364 79.5698C150.156 79.5438 149.927 79.5308 149.675 79.5308C149.147 79.5308 148.609 79.6045 148.063 79.7518V84.7568H146.997ZM158.086 81.7408C158.086 82.2175 158.017 82.6508 157.878 83.0408C157.748 83.4222 157.562 83.7515 157.319 84.0288C157.077 84.3062 156.786 84.5228 156.448 84.6788C156.11 84.8262 155.742 84.8998 155.343 84.8998C154.953 84.8998 154.589 84.8262 154.251 84.6788C153.922 84.5228 153.636 84.3062 153.393 84.0288C153.151 83.7515 152.96 83.4222 152.821 83.0408C152.691 82.6508 152.626 82.2175 152.626 81.7408C152.626 81.2642 152.691 80.8308 152.821 80.4408C152.96 80.0508 153.151 79.7215 153.393 79.4528C153.636 79.1755 153.922 78.9632 154.251 78.8158C154.589 78.6598 154.953 78.5818 155.343 78.5818C155.742 78.5818 156.11 78.6598 156.448 78.8158C156.786 78.9632 157.077 79.1755 157.319 79.4528C157.562 79.7215 157.748 80.0508 157.878 80.4408C158.017 80.8308 158.086 81.2642 158.086 81.7408ZM156.981 81.7408C156.981 81.0562 156.834 80.5188 156.539 80.1288C156.245 79.7302 155.846 79.5308 155.343 79.5308C154.849 79.5308 154.455 79.7302 154.16 80.1288C153.874 80.5188 153.731 81.0562 153.731 81.7408C153.731 82.4168 153.874 82.9542 154.16 83.3528C154.455 83.7428 154.849 83.9378 155.343 83.9378C155.846 83.9378 156.245 83.7428 156.539 83.3528C156.834 82.9542 156.981 82.4168 156.981 81.7408ZM159.997 84.7568V79.0498C160.881 78.7465 161.774 78.5948 162.675 78.5948C162.953 78.5948 163.217 78.6078 163.468 78.6338C163.72 78.6512 163.997 78.6945 164.3 78.7638L164.105 79.7128C163.828 79.6348 163.581 79.5872 163.364 79.5698C163.156 79.5438 162.927 79.5308 162.675 79.5308C162.147 79.5308 161.609 79.6045 161.063 79.7518V84.7568H159.997ZM170.098 76.4238C169.292 77.0478 168.677 77.7672 168.252 78.5818C167.828 79.3965 167.615 80.2848 167.615 81.2468C167.615 81.7322 167.663 82.1915 167.758 82.6248C167.862 83.0582 168.014 83.4742 168.213 83.8728C168.421 84.2715 168.681 84.6572 168.993 85.0298C169.314 85.4025 169.691 85.7752 170.124 86.1478L169.539 86.9278C168.543 86.1912 167.797 85.3375 167.303 84.3668C166.818 83.3875 166.575 82.3562 166.575 81.2728C166.575 80.1982 166.822 79.1712 167.316 78.1918C167.81 77.2125 168.551 76.3632 169.539 75.6438L170.111 76.4238H170.098ZM176 84.8998C175.619 84.8998 175.303 84.8478 175.051 84.7438C174.8 84.6398 174.601 84.4838 174.453 84.2758C174.306 84.0678 174.202 83.8122 174.141 83.5088C174.081 83.1968 174.05 82.8372 174.05 82.4298V76.7228H172.308V75.8128H175.116V82.4298C175.116 82.7332 175.134 82.9802 175.168 83.1708C175.212 83.3615 175.272 83.5175 175.35 83.6388C175.437 83.7515 175.541 83.8295 175.662 83.8728C175.784 83.9162 175.927 83.9378 176.091 83.9378C176.343 83.9378 176.577 83.9075 176.793 83.8468C177.01 83.7862 177.179 83.7212 177.3 83.6518L177.456 84.5618C177.404 84.5878 177.331 84.6225 177.235 84.6658C177.14 84.7005 177.027 84.7352 176.897 84.7698C176.767 84.8045 176.624 84.8348 176.468 84.8608C176.321 84.8868 176.165 84.8998 176 84.8998ZM180.823 77.7888C180.598 77.7888 180.403 77.7108 180.238 77.5548C180.074 77.3988 179.991 77.1865 179.991 76.9178C179.991 76.6492 180.074 76.4368 180.238 76.2808C180.403 76.1248 180.598 76.0468 180.823 76.0468C181.057 76.0468 181.252 76.1248 181.408 76.2808C181.573 76.4368 181.655 76.6492 181.655 76.9178C181.655 77.1865 181.573 77.3988 181.408 77.5548C181.252 77.7108 181.057 77.7888 180.823 77.7888ZM180.55 79.6218H178.808V78.7248H181.616V82.4298C181.616 83.0278 181.699 83.4308 181.863 83.6388C182.028 83.8382 182.275 83.9378 182.604 83.9378C182.856 83.9378 183.085 83.9075 183.293 83.8468C183.51 83.7862 183.679 83.7212 183.8 83.6518L183.956 84.5618C183.904 84.5878 183.831 84.6225 183.735 84.6658C183.64 84.7005 183.527 84.7352 183.397 84.7698C183.276 84.8045 183.137 84.8348 182.981 84.8608C182.834 84.8868 182.678 84.8998 182.513 84.8998C182.132 84.8998 181.816 84.8478 181.564 84.7438C181.313 84.6398 181.109 84.4838 180.953 84.2758C180.806 84.0678 180.702 83.8122 180.641 83.5088C180.581 83.1968 180.55 82.8372 180.55 82.4298V79.6218ZM185.529 78.8938C185.919 78.7985 186.305 78.7248 186.686 78.6728C187.076 78.6208 187.44 78.5948 187.778 78.5948C188.584 78.5948 189.191 78.8028 189.598 79.2188C190.014 79.6348 190.222 80.3022 190.222 81.2208V84.7568H189.156V81.4158C189.156 81.0258 189.122 80.7095 189.052 80.4668C188.983 80.2242 188.883 80.0378 188.753 79.9078C188.632 79.7692 188.48 79.6738 188.298 79.6218C188.125 79.5698 187.934 79.5438 187.726 79.5438C187.553 79.5438 187.367 79.5568 187.167 79.5828C186.977 79.6002 186.79 79.6262 186.608 79.6608V84.7568H185.529V78.8938ZM194.473 78.5818C195.288 78.5818 195.916 78.8375 196.358 79.3488C196.8 79.8515 197.021 80.6185 197.021 81.6498V82.0268H192.705C192.749 82.6508 192.952 83.1275 193.316 83.4568C193.689 83.7775 194.209 83.9378 194.876 83.9378C195.258 83.9378 195.583 83.9075 195.851 83.8468C196.12 83.7862 196.324 83.7212 196.462 83.6518L196.605 84.5618C196.475 84.6312 196.241 84.7048 195.903 84.7828C195.565 84.8608 195.184 84.8998 194.759 84.8998C194.239 84.8998 193.78 84.8218 193.381 84.6658C192.991 84.5012 192.666 84.2802 192.406 84.0028C192.146 83.7255 191.951 83.3962 191.821 83.0148C191.691 82.6248 191.626 82.2045 191.626 81.7538C191.626 81.2165 191.709 80.7485 191.873 80.3498C192.038 79.9512 192.255 79.6218 192.523 79.3618C192.792 79.1018 193.095 78.9068 193.433 78.7768C193.771 78.6468 194.118 78.5818 194.473 78.5818ZM195.929 81.1558C195.929 80.6445 195.795 80.2415 195.526 79.9468C195.258 79.6435 194.902 79.4918 194.46 79.4918C194.209 79.4918 193.979 79.5395 193.771 79.6348C193.572 79.7302 193.399 79.8558 193.251 80.0118C193.104 80.1678 192.987 80.3455 192.9 80.5448C192.814 80.7442 192.757 80.9478 192.731 81.1558H195.929ZM199.101 86.1478C199.907 85.5238 200.523 84.8045 200.947 83.9898C201.381 83.1752 201.597 82.2868 201.597 81.3248C201.597 80.8395 201.545 80.3802 201.441 79.9468C201.346 79.5135 201.194 79.0975 200.986 78.6988C200.778 78.3002 200.514 77.9145 200.193 77.5418C199.881 77.1692 199.509 76.7965 199.075 76.4238L199.66 75.6438C200.657 76.3805 201.398 77.2385 201.883 78.2178C202.377 79.1885 202.624 80.2155 202.624 81.2988C202.624 81.8362 202.559 82.3648 202.429 82.8848C202.308 83.4048 202.122 83.9075 201.87 84.3928C201.628 84.8695 201.32 85.3202 200.947 85.7448C200.583 86.1782 200.154 86.5725 199.66 86.9278L199.088 86.1478H199.101ZM205.731 85.7838C205.887 85.7492 206.039 85.7145 206.186 85.6798C206.342 85.6452 206.485 85.5932 206.615 85.5238C206.745 85.4632 206.862 85.3808 206.966 85.2768C207.07 85.1815 207.153 85.0472 207.213 84.8738C206.936 84.8478 206.732 84.7438 206.602 84.5618C206.481 84.3712 206.42 84.1848 206.42 84.0028C206.42 83.6562 206.516 83.3962 206.706 83.2228C206.906 83.0408 207.131 82.9498 207.382 82.9498C207.703 82.9498 207.946 83.0668 208.11 83.3008C208.275 83.5262 208.357 83.8035 208.357 84.1328C208.357 84.3842 208.305 84.6442 208.201 84.9128C208.106 85.1902 207.954 85.4458 207.746 85.6798C207.547 85.9225 207.296 86.1262 206.992 86.2908C206.689 86.4642 206.329 86.5768 205.913 86.6288L205.731 85.7838ZM208.318 79.7258C208.318 79.9858 208.232 80.2155 208.058 80.4148C207.885 80.6142 207.655 80.7138 207.369 80.7138C207.075 80.7138 206.841 80.6142 206.667 80.4148C206.494 80.2155 206.407 79.9858 206.407 79.7258C206.407 79.4572 206.494 79.2232 206.667 79.0238C206.841 78.8245 207.075 78.7248 207.369 78.7248C207.655 78.7248 207.885 78.8245 208.058 79.0238C208.232 79.2232 208.318 79.4572 208.318 79.7258ZM55.2044 93.8828H57.3884V91.4908H58.3244V93.8828H60.5214V94.7928H58.3244V97.1978H57.3884V94.7928H55.2044V93.8828ZM81.2434 94.7538C81.2434 94.2078 81.3301 93.7355 81.5034 93.3368C81.6768 92.9382 81.9151 92.6088 82.2184 92.3488C82.5218 92.0888 82.8728 91.8982 83.2714 91.7768C83.6788 91.6468 84.1121 91.5818 84.5714 91.5818C84.8661 91.5818 85.1564 91.6035 85.4424 91.6468C85.7371 91.6815 86.0491 91.7508 86.3784 91.8548L86.1314 92.7778C85.8454 92.6738 85.5811 92.6088 85.3384 92.5828C85.1044 92.5482 84.8661 92.5308 84.6234 92.5308C84.3114 92.5308 84.0168 92.5742 83.7394 92.6608C83.4621 92.7388 83.2194 92.8688 83.0114 93.0508C82.8121 93.2242 82.6518 93.4538 82.5304 93.7398C82.4091 94.0172 82.3484 94.3552 82.3484 94.7538C82.3484 95.1352 82.4048 95.4645 82.5174 95.7418C82.6301 96.0105 82.7861 96.2358 82.9854 96.4178C83.1934 96.5912 83.4404 96.7212 83.7264 96.8078C84.0124 96.8945 84.3288 96.9378 84.6754 96.9378C84.9528 96.9378 85.2171 96.9248 85.4684 96.8988C85.7284 96.8642 86.0101 96.7948 86.3134 96.6908L86.4694 97.5878C86.1661 97.7005 85.8584 97.7785 85.5464 97.8218C85.2344 97.8738 84.8964 97.8998 84.5324 97.8998C84.0471 97.8998 83.6008 97.8348 83.1934 97.7048C82.7948 97.5662 82.4481 97.3668 82.1534 97.1068C81.8674 96.8468 81.6421 96.5218 81.4774 96.1318C81.3214 95.7332 81.2434 95.2738 81.2434 94.7538ZM93.0864 94.7408C93.0864 95.2175 93.0171 95.6508 92.8784 96.0408C92.7484 96.4222 92.5621 96.7515 92.3194 97.0288C92.0768 97.3062 91.7864 97.5228 91.4484 97.6788C91.1104 97.8262 90.7421 97.8998 90.3434 97.8998C89.9534 97.8998 89.5894 97.8262 89.2514 97.6788C88.9221 97.5228 88.6361 97.3062 88.3934 97.0288C88.1508 96.7515 87.9601 96.4222 87.8214 96.0408C87.6914 95.6508 87.6264 95.2175 87.6264 94.7408C87.6264 94.2642 87.6914 93.8308 87.8214 93.4408C87.9601 93.0508 88.1508 92.7215 88.3934 92.4528C88.6361 92.1755 88.9221 91.9632 89.2514 91.8158C89.5894 91.6598 89.9534 91.5818 90.3434 91.5818C90.7421 91.5818 91.1104 91.6598 91.4484 91.8158C91.7864 91.9632 92.0768 92.1755 92.3194 92.4528C92.5621 92.7215 92.7484 93.0508 92.8784 93.4408C93.0171 93.8308 93.0864 94.2642 93.0864 94.7408ZM91.9814 94.7408C91.9814 94.0562 91.8341 93.5188 91.5394 93.1288C91.2448 92.7302 90.8461 92.5308 90.3434 92.5308C89.8494 92.5308 89.4551 92.7302 89.1604 93.1288C88.8744 93.5188 88.7314 94.0562 88.7314 94.7408C88.7314 95.4168 88.8744 95.9542 89.1604 96.3528C89.4551 96.7428 89.8494 96.9378 90.3434 96.9378C90.8461 96.9378 91.2448 96.7428 91.5394 96.3528C91.8341 95.9542 91.9814 95.4168 91.9814 94.7408ZM94.5294 91.8938C94.9194 91.7985 95.3051 91.7248 95.6864 91.6728C96.0764 91.6208 96.4404 91.5948 96.7784 91.5948C97.5844 91.5948 98.1911 91.8028 98.5984 92.2188C99.0144 92.6348 99.2224 93.3022 99.2224 94.2208V97.7568H98.1564V94.4158C98.1564 94.0258 98.1218 93.7095 98.0524 93.4668C97.9831 93.2242 97.8834 93.0378 97.7534 92.9078C97.6321 92.7692 97.4804 92.6738 97.2984 92.6218C97.1251 92.5698 96.9344 92.5438 96.7264 92.5438C96.5531 92.5438 96.3668 92.5568 96.1674 92.5828C95.9768 92.6002 95.7904 92.6262 95.6084 92.6608V97.7568H94.5294V91.8938ZM104.669 96.2488C104.669 96.0322 104.578 95.8545 104.396 95.7158C104.223 95.5772 104.002 95.4558 103.733 95.3518C103.473 95.2478 103.187 95.1482 102.875 95.0528C102.563 94.9488 102.273 94.8232 102.004 94.6758C101.744 94.5285 101.523 94.3465 101.341 94.1298C101.168 93.9132 101.081 93.6315 101.081 93.2848C101.081 92.7995 101.276 92.3965 101.666 92.0758C102.065 91.7465 102.685 91.5818 103.525 91.5818C103.855 91.5818 104.193 91.6078 104.539 91.6598C104.895 91.7032 105.198 91.7638 105.449 91.8418L105.254 92.8038C105.185 92.7692 105.09 92.7345 104.968 92.6998C104.847 92.6565 104.708 92.6218 104.552 92.5958C104.396 92.5612 104.227 92.5352 104.045 92.5178C103.872 92.5005 103.703 92.4918 103.538 92.4918C102.602 92.4918 102.134 92.7475 102.134 93.2588C102.134 93.4408 102.221 93.5968 102.394 93.7268C102.576 93.8482 102.802 93.9608 103.07 94.0648C103.339 94.1688 103.629 94.2772 103.941 94.3898C104.253 94.4938 104.544 94.6238 104.812 94.7798C105.081 94.9358 105.302 95.1265 105.475 95.3518C105.657 95.5685 105.748 95.8458 105.748 96.1838C105.748 96.7298 105.536 97.1545 105.111 97.4578C104.687 97.7525 104.015 97.8998 103.096 97.8998C102.68 97.8998 102.299 97.8652 101.952 97.7958C101.606 97.7265 101.276 97.6225 100.964 97.4838L101.172 96.5088C101.476 96.6475 101.792 96.7645 102.121 96.8598C102.459 96.9465 102.819 96.9898 103.2 96.9898C104.18 96.9898 104.669 96.7428 104.669 96.2488ZM112.586 94.7408C112.586 95.2175 112.517 95.6508 112.378 96.0408C112.248 96.4222 112.062 96.7515 111.819 97.0288C111.577 97.3062 111.286 97.5228 110.948 97.6788C110.61 97.8262 110.242 97.8998 109.843 97.8998C109.453 97.8998 109.089 97.8262 108.751 97.6788C108.422 97.5228 108.136 97.3062 107.893 97.0288C107.651 96.7515 107.46 96.4222 107.321 96.0408C107.191 95.6508 107.126 95.2175 107.126 94.7408C107.126 94.2642 107.191 93.8308 107.321 93.4408C107.46 93.0508 107.651 92.7215 107.893 92.4528C108.136 92.1755 108.422 91.9632 108.751 91.8158C109.089 91.6598 109.453 91.5818 109.843 91.5818C110.242 91.5818 110.61 91.6598 110.948 91.8158C111.286 91.9632 111.577 92.1755 111.819 92.4528C112.062 92.7215 112.248 93.0508 112.378 93.4408C112.517 93.8308 112.586 94.2642 112.586 94.7408ZM111.481 94.7408C111.481 94.0562 111.334 93.5188 111.039 93.1288C110.745 92.7302 110.346 92.5308 109.843 92.5308C109.349 92.5308 108.955 92.7302 108.66 93.1288C108.374 93.5188 108.231 94.0562 108.231 94.7408C108.231 95.4168 108.374 95.9542 108.66 96.3528C108.955 96.7428 109.349 96.9378 109.843 96.9378C110.346 96.9378 110.745 96.7428 111.039 96.3528C111.334 95.9542 111.481 95.4168 111.481 94.7408ZM117.5 97.8998C117.119 97.8998 116.803 97.8478 116.551 97.7438C116.3 97.6398 116.101 97.4838 115.953 97.2758C115.806 97.0678 115.702 96.8122 115.641 96.5088C115.581 96.1968 115.55 95.8372 115.55 95.4298V89.7228H113.808V88.8128H116.616V95.4298C116.616 95.7332 116.634 95.9802 116.668 96.1708C116.712 96.3615 116.772 96.5175 116.85 96.6388C116.937 96.7515 117.041 96.8295 117.162 96.8728C117.284 96.9162 117.427 96.9378 117.591 96.9378C117.843 96.9378 118.077 96.9075 118.293 96.8468C118.51 96.7862 118.679 96.7212 118.8 96.6518L118.956 97.5618C118.904 97.5878 118.831 97.6225 118.735 97.6658C118.64 97.7005 118.527 97.7352 118.397 97.7698C118.267 97.8045 118.124 97.8348 117.968 97.8608C117.821 97.8868 117.665 97.8998 117.5 97.8998ZM122.973 91.5818C123.788 91.5818 124.416 91.8375 124.858 92.3488C125.3 92.8515 125.521 93.6185 125.521 94.6498V95.0268H121.205C121.249 95.6508 121.452 96.1275 121.816 96.4568C122.189 96.7775 122.709 96.9378 123.376 96.9378C123.758 96.9378 124.083 96.9075 124.351 96.8468C124.62 96.7862 124.824 96.7212 124.962 96.6518L125.105 97.5618C124.975 97.6312 124.741 97.7048 124.403 97.7828C124.065 97.8608 123.684 97.8998 123.259 97.8998C122.739 97.8998 122.28 97.8218 121.881 97.6658C121.491 97.5012 121.166 97.2802 120.906 97.0028C120.646 96.7255 120.451 96.3962 120.321 96.0148C120.191 95.6248 120.126 95.2045 120.126 94.7538C120.126 94.2165 120.209 93.7485 120.373 93.3498C120.538 92.9512 120.755 92.6218 121.023 92.3618C121.292 92.1018 121.595 91.9068 121.933 91.7768C122.271 91.6468 122.618 91.5818 122.973 91.5818ZM124.429 94.1558C124.429 93.6445 124.295 93.2415 124.026 92.9468C123.758 92.6435 123.402 92.4918 122.96 92.4918C122.709 92.4918 122.479 92.5395 122.271 92.6348C122.072 92.7302 121.899 92.8558 121.751 93.0118C121.604 93.1678 121.487 93.3455 121.4 93.5448C121.314 93.7442 121.257 93.9478 121.231 94.1558H124.429ZM130.318 96.9248C130.318 97.1848 130.232 97.4145 130.058 97.6138C129.885 97.8132 129.655 97.9128 129.369 97.9128C129.075 97.9128 128.841 97.8132 128.667 97.6138C128.494 97.4145 128.407 97.1848 128.407 96.9248C128.407 96.6562 128.494 96.4222 128.667 96.2228C128.841 96.0235 129.075 95.9238 129.369 95.9238C129.655 95.9238 129.885 96.0235 130.058 96.2228C130.232 96.4222 130.318 96.6562 130.318 96.9248ZM137 97.8998C136.619 97.8998 136.303 97.8478 136.051 97.7438C135.8 97.6398 135.601 97.4838 135.453 97.2758C135.306 97.0678 135.202 96.8122 135.141 96.5088C135.081 96.1968 135.05 95.8372 135.05 95.4298V89.7228H133.308V88.8128H136.116V95.4298C136.116 95.7332 136.134 95.9802 136.168 96.1708C136.212 96.3615 136.272 96.5175 136.35 96.6388C136.437 96.7515 136.541 96.8295 136.662 96.8728C136.784 96.9162 136.927 96.9378 137.091 96.9378C137.343 96.9378 137.577 96.9075 137.793 96.8468C138.01 96.7862 138.179 96.7212 138.3 96.6518L138.456 97.5618C138.404 97.5878 138.331 97.6225 138.235 97.6658C138.14 97.7005 138.027 97.7352 137.897 97.7698C137.767 97.8045 137.624 97.8348 137.468 97.8608C137.321 97.8868 137.165 97.8998 137 97.8998ZM145.086 94.7408C145.086 95.2175 145.017 95.6508 144.878 96.0408C144.748 96.4222 144.562 96.7515 144.319 97.0288C144.077 97.3062 143.786 97.5228 143.448 97.6788C143.11 97.8262 142.742 97.8998 142.343 97.8998C141.953 97.8998 141.589 97.8262 141.251 97.6788C140.922 97.5228 140.636 97.3062 140.393 97.0288C140.151 96.7515 139.96 96.4222 139.821 96.0408C139.691 95.6508 139.626 95.2175 139.626 94.7408C139.626 94.2642 139.691 93.8308 139.821 93.4408C139.96 93.0508 140.151 92.7215 140.393 92.4528C140.636 92.1755 140.922 91.9632 141.251 91.8158C141.589 91.6598 141.953 91.5818 142.343 91.5818C142.742 91.5818 143.11 91.6598 143.448 91.8158C143.786 91.9632 144.077 92.1755 144.319 92.4528C144.562 92.7215 144.748 93.0508 144.878 93.4408C145.017 93.8308 145.086 94.2642 145.086 94.7408ZM143.981 94.7408C143.981 94.0562 143.834 93.5188 143.539 93.1288C143.245 92.7302 142.846 92.5308 142.343 92.5308C141.849 92.5308 141.455 92.7302 141.16 93.1288C140.874 93.5188 140.731 94.0562 140.731 94.7408C140.731 95.4168 140.874 95.9542 141.16 96.3528C141.455 96.7428 141.849 96.9378 142.343 96.9378C142.846 96.9378 143.245 96.7428 143.539 96.3528C143.834 95.9542 143.981 95.4168 143.981 94.7408ZM150.104 97.1978C149.983 97.2672 149.797 97.3408 149.545 97.4188C149.294 97.4968 149.004 97.5358 148.674 97.5358C148.319 97.5358 147.985 97.4795 147.673 97.3668C147.37 97.2455 147.101 97.0678 146.867 96.8338C146.642 96.5912 146.46 96.2878 146.321 95.9238C146.191 95.5512 146.126 95.1135 146.126 94.6108C146.126 94.1688 146.187 93.7658 146.308 93.4018C146.438 93.0292 146.62 92.7085 146.854 92.4398C147.097 92.1712 147.392 91.9632 147.738 91.8158C148.085 91.6598 148.479 91.5818 148.921 91.5818C149.441 91.5818 149.883 91.6208 150.247 91.6988C150.62 91.7682 150.932 91.8375 151.183 91.9068V97.2888C151.183 98.2248 150.945 98.9008 150.468 99.3168C150 99.7328 149.29 99.9408 148.336 99.9408C147.946 99.9408 147.591 99.9105 147.27 99.8498C146.958 99.7892 146.681 99.7155 146.438 99.6288L146.633 98.6798C146.859 98.7752 147.114 98.8532 147.4 98.9138C147.695 98.9745 148.016 99.0048 148.362 99.0048C148.986 99.0048 149.433 98.8792 149.701 98.6278C149.97 98.3765 150.104 97.9692 150.104 97.4058V97.1978ZM150.104 92.6738C150 92.6392 149.857 92.6088 149.675 92.5828C149.493 92.5482 149.246 92.5308 148.934 92.5308C148.38 92.5308 147.955 92.7215 147.66 93.1028C147.374 93.4842 147.231 93.9912 147.231 94.6238C147.231 94.9705 147.27 95.2695 147.348 95.5208C147.435 95.7635 147.548 95.9672 147.686 96.1318C147.834 96.2878 147.998 96.4048 148.18 96.4828C148.362 96.5522 148.557 96.5868 148.765 96.5868C149.034 96.5868 149.285 96.5478 149.519 96.4698C149.762 96.3918 149.957 96.3008 150.104 96.1968V92.6738ZM157.098 89.4238C156.292 90.0478 155.677 90.7672 155.252 91.5818C154.828 92.3965 154.615 93.2848 154.615 94.2468C154.615 94.7322 154.663 95.1915 154.758 95.6248C154.862 96.0582 155.014 96.4742 155.213 96.8728C155.421 97.2715 155.681 97.6572 155.993 98.0298C156.314 98.4025 156.691 98.7752 157.124 99.1478L156.539 99.9278C155.543 99.1912 154.797 98.3375 154.303 97.3668C153.818 96.3875 153.575 95.3562 153.575 94.2728C153.575 93.1982 153.822 92.1712 154.316 91.1918C154.81 90.2125 155.551 89.3632 156.539 88.6438L157.111 89.4238H157.098ZM161.973 91.5818C162.788 91.5818 163.416 91.8375 163.858 92.3488C164.3 92.8515 164.521 93.6185 164.521 94.6498V95.0268H160.205C160.249 95.6508 160.452 96.1275 160.816 96.4568C161.189 96.7775 161.709 96.9378 162.376 96.9378C162.758 96.9378 163.083 96.9075 163.351 96.8468C163.62 96.7862 163.824 96.7212 163.962 96.6518L164.105 97.5618C163.975 97.6312 163.741 97.7048 163.403 97.7828C163.065 97.8608 162.684 97.8998 162.259 97.8998C161.739 97.8998 161.28 97.8218 160.881 97.6658C160.491 97.5012 160.166 97.2802 159.906 97.0028C159.646 96.7255 159.451 96.3962 159.321 96.0148C159.191 95.6248 159.126 95.2045 159.126 94.7538C159.126 94.2165 159.209 93.7485 159.373 93.3498C159.538 92.9512 159.755 92.6218 160.023 92.3618C160.292 92.1018 160.595 91.9068 160.933 91.7768C161.271 91.6468 161.618 91.5818 161.973 91.5818ZM163.429 94.1558C163.429 93.6445 163.295 93.2415 163.026 92.9468C162.758 92.6435 162.402 92.4918 161.96 92.4918C161.709 92.4918 161.479 92.5395 161.271 92.6348C161.072 92.7302 160.899 92.8558 160.751 93.0118C160.604 93.1678 160.487 93.3455 160.4 93.5448C160.314 93.7442 160.257 93.9478 160.231 94.1558H163.429ZM166.497 97.7568V92.0498C167.381 91.7465 168.274 91.5948 169.175 91.5948C169.453 91.5948 169.717 91.6078 169.968 91.6338C170.22 91.6512 170.497 91.6945 170.8 91.7638L170.605 92.7128C170.328 92.6348 170.081 92.5872 169.864 92.5698C169.656 92.5438 169.427 92.5308 169.175 92.5308C168.647 92.5308 168.109 92.6045 167.563 92.7518V97.7568H166.497ZM172.997 97.7568V92.0498C173.881 91.7465 174.774 91.5948 175.675 91.5948C175.953 91.5948 176.217 91.6078 176.468 91.6338C176.72 91.6512 176.997 91.6945 177.3 91.7638L177.105 92.7128C176.828 92.6348 176.581 92.5872 176.364 92.5698C176.156 92.5438 175.927 92.5308 175.675 92.5308C175.147 92.5308 174.609 92.6045 174.063 92.7518V97.7568H172.997ZM179.601 99.1478C180.407 98.5238 181.023 97.8045 181.447 96.9898C181.881 96.1752 182.097 95.2868 182.097 94.3248C182.097 93.8395 182.045 93.3802 181.941 92.9468C181.846 92.5135 181.694 92.0975 181.486 91.6988C181.278 91.3002 181.014 90.9145 180.693 90.5418C180.381 90.1692 180.009 89.7965 179.575 89.4238L180.16 88.6438C181.157 89.3805 181.898 90.2385 182.383 91.2178C182.877 92.1885 183.124 93.2155 183.124 94.2988C183.124 94.8362 183.059 95.3648 182.929 95.8848C182.808 96.4048 182.622 96.9075 182.37 97.3928C182.128 97.8695 181.82 98.3202 181.447 98.7448C181.083 99.1782 180.654 99.5725 180.16 99.9278L179.588 99.1478H179.601ZM186.231 98.7838C186.387 98.7492 186.539 98.7145 186.686 98.6798C186.842 98.6452 186.985 98.5932 187.115 98.5238C187.245 98.4632 187.362 98.3808 187.466 98.2768C187.57 98.1815 187.653 98.0472 187.713 97.8738C187.436 97.8478 187.232 97.7438 187.102 97.5618C186.981 97.3712 186.92 97.1848 186.92 97.0028C186.92 96.6562 187.016 96.3962 187.206 96.2228C187.406 96.0408 187.631 95.9498 187.882 95.9498C188.203 95.9498 188.446 96.0668 188.61 96.3008C188.775 96.5262 188.857 96.8035 188.857 97.1328C188.857 97.3842 188.805 97.6442 188.701 97.9128C188.606 98.1902 188.454 98.4458 188.246 98.6798C188.047 98.9225 187.796 99.1262 187.492 99.2908C187.189 99.4642 186.829 99.5768 186.413 99.6288L186.231 98.7838ZM188.818 92.7258C188.818 92.9858 188.732 93.2155 188.558 93.4148C188.385 93.6142 188.155 93.7138 187.869 93.7138C187.575 93.7138 187.341 93.6142 187.167 93.4148C186.994 93.2155 186.907 92.9858 186.907 92.7258C186.907 92.4572 186.994 92.2232 187.167 92.0238C187.341 91.8245 187.575 91.7248 187.869 91.7248C188.155 91.7248 188.385 91.8245 188.558 92.0238C188.732 92.2232 188.818 92.4572 188.818 92.7258ZM55.1264 106.688H57.1674V104.426H58.5454V106.688H60.5864V108.001H58.5454V110.263H57.1674V108.001H55.1264V106.688ZM73.0794 107.702H72.5594C72.4121 107.702 72.2821 107.737 72.1694 107.806C72.0654 107.867 71.9744 107.953 71.8964 108.066C71.8271 108.17 71.7708 108.291 71.7274 108.43C71.6928 108.56 71.6754 108.694 71.6754 108.833V110.926C71.6754 111.247 71.6408 111.528 71.5714 111.771C71.5108 112.014 71.3981 112.217 71.2334 112.382C71.0774 112.555 70.8651 112.685 70.5964 112.772C70.3364 112.859 70.0071 112.902 69.6084 112.902H68.5554V112.057H69.6604C70.0244 112.057 70.2801 111.975 70.4274 111.81C70.5834 111.645 70.6614 111.346 70.6614 110.913V109.119C70.6614 108.538 70.7481 108.114 70.9214 107.845C71.0948 107.568 71.2941 107.381 71.5194 107.286C71.2941 107.182 71.0948 106.987 70.9214 106.701C70.7481 106.415 70.6614 105.999 70.6614 105.453V103.659C70.6614 103.226 70.5834 102.927 70.4274 102.762C70.2714 102.597 70.0114 102.515 69.6474 102.515H68.5554V101.67H69.6084C70.0071 101.67 70.3364 101.713 70.5964 101.8C70.8651 101.887 71.0774 102.017 71.2334 102.19C71.3981 102.355 71.5108 102.558 71.5714 102.801C71.6408 103.044 71.6754 103.325 71.6754 103.646V105.739C71.6754 105.869 71.6928 106.003 71.7274 106.142C71.7621 106.272 71.8141 106.393 71.8834 106.506C71.9614 106.61 72.0524 106.697 72.1564 106.766C72.2691 106.835 72.3991 106.87 72.5464 106.87H73.0794V107.702Z" fill="white"/>
<defs>
<filter id="filter0_d_108_59" x="0.115234" y="0.757568" width="407.196" height="196.273" filterUnits="userSpaceOnUse" color-interpolation-filters="sRGB">
<feFlood flood-opacity="0" result="BackgroundImageFix"/>
<feColorMatrix in="SourceAlpha" type="matrix" values="0 0 0 0 0 0 0 0 0 0 0 0 0 0 0 0 0 0 127 0" result="hardAlpha"/>
<feOffset dy="23"/>
<feGaussianBlur stdDeviation="12"/>
<feComposite in2="hardAlpha" operator="out"/>
<feColorMatrix type="matrix" values="0 0 0 0 0 0 0 0 0 0 0 0 0 0 0 0 0 0 0.15 0"/>
<feBlend mode="normal" in2="BackgroundImageFix" result="effect1_dropShadow_108_59"/>
<feBlend mode="normal" in="SourceGraphic" in2="effect1_dropShadow_108_59" result="shape"/>
</filter>
</defs>
</svg>
